<mxfile host="app.diagrams.net" agent="Mozilla/5.0 (Windows NT 10.0; Win64; x64; rv:142.0) Gecko/20100101 Firefox/142.0" version="28.1.1">
  <diagram name="Page-1" id="NTQ3HkwJSF0WTSYPxbTP">
    <mxGraphModel dx="946" dy="600" grid="1" gridSize="10" guides="1" tooltips="1" connect="1" arrows="1" fold="1" page="1" pageScale="1" pageWidth="850" pageHeight="1100" math="0" shadow="0">
      <root>
        <mxCell id="0" />
        <mxCell id="1" parent="0" />
        <mxCell id="2q6dvKmaqyQex-brDvFA-13" value="&lt;div&gt;Deployment&lt;/div&gt;" style="text;strokeColor=none;fillColor=none;html=1;fontSize=24;fontStyle=1;verticalAlign=middle;align=center;fontFamily=Courier New;labelBackgroundColor=none;" vertex="1" parent="1">
          <mxGeometry x="270" y="220" width="100" height="40" as="geometry" />
        </mxCell>
        <mxCell id="2q6dvKmaqyQex-brDvFA-23" value="" style="rounded=1;whiteSpace=wrap;html=1;fontFamily=Courier New;labelBackgroundColor=none;fillColor=light-dark(#FFFFFF,#004C99);fontStyle=1" vertex="1" parent="1">
          <mxGeometry x="20" y="260" width="600" height="140" as="geometry" />
        </mxCell>
        <mxCell id="2q6dvKmaqyQex-brDvFA-26" value="" style="shape=image;verticalLabelPosition=bottom;verticalAlign=top;imageAspect=0;aspect=fixed;image=data:image/svg+xml,PHN2ZyB4bWxuczp4bGluaz0iaHR0cDovL3d3dy53My5vcmcvMTk5OS94bGluayIgeG1sbnM9Imh0dHA6Ly93d3cudzMub3JnLzIwMDAvc3ZnIiB2ZXJzaW9uPSIxLjEiIHZpZXdCb3g9Ii0wLjUgLTAuNSA4MSA4MSIgaGVpZ2h0PSI4MSIgd2lkdGg9IjgxIj4mI3hhOyAgICA8dGl0bGU+SWNvbi1BcmNoaXRlY3R1cmUvNjQvQXJjaF8gQW1hem9uLUFQSS1HYXRld2F5XzY0PC90aXRsZT4mI3hhOyAgICA8ZGVmcz4mI3hhOyAgICAgICAgPGxpbmVhckdyYWRpZW50IGlkPSJsaW5lYXJHcmFkaWVudC0xIiB5Mj0iMCUiIHgyPSIxMDAlIiB5MT0iMTAwJSIgeDE9IjAlIj4mI3hhOyAgICAgICAgICAgIDxzdG9wIG9mZnNldD0iMCUiIHN0b3AtY29sb3I9IiNCMDA4NEQiLz4mI3hhOyAgICAgICAgICAgIDxzdG9wIG9mZnNldD0iMTAwJSIgc3RvcC1jb2xvcj0iI0ZGNEY4QiIvPiYjeGE7ICAgICAgICA8L2xpbmVhckdyYWRpZW50PiYjeGE7ICAgIDwvZGVmcz4mI3hhOyAgICA8ZyBmaWxsLXJ1bGU9ImV2ZW5vZGQiIGZpbGw9Im5vbmUiIHN0cm9rZS13aWR0aD0iMSIgc3Ryb2tlPSJub25lIiBpZD0iSWNvbi1BcmNoaXRlY3R1cmUvNjQvQXJjaF8tQW1hem9uLUFQSS1HYXRld2F5XzY0Ij4mI3hhOyAgICAgICAgPGcgZmlsbD0idXJsKCNsaW5lYXJHcmFkaWVudC0xKSIgaWQ9IlJlY3RhbmdsZSI+JiN4YTsgICAgICAgICAgICA8cmVjdCBoZWlnaHQ9IjgwIiB3aWR0aD0iODAiIHk9IjAiIHg9IjAiLz4mI3hhOyAgICAgICAgPC9nPiYjeGE7ICAgICAgICA8ZyBmaWxsPSIjRkZGRkZGIiB0cmFuc2Zvcm09InRyYW5zbGF0ZSg4LjAwMDAwMCwgOC4wMDAwMDApIiBpZD0iSWNvbi1TZXJ2aWNlLzY0L0FtYXpvbi1BUEktR2F0ZXdheV82NCI+JiN4YTsgICAgICAgICAgICA8cGF0aCBpZD0iQW1hem9uLUFQSS1HYXRld2F5X0ljb25fNjRfU3F1aWQiIGQ9Ik0yNi4wNjUsNDcuNjMyMzY0MiBMMjksNDcuNjMyMzY0MiBMMjksNDUuNjE1Mjk4OSBMMjYuMDY1LDQ1LjYxNTI5ODkgTDI2LjA2NSw0Ny42MzIzNjQyIFogTTMxLDQ3LjYzMjM2NDIgTDM0LDQ3LjYzMjM2NDIgTDM0LDQ1LjYxNTI5ODkgTDMxLDQ1LjYxNTI5ODkgTDMxLDQ3LjYzMjM2NDIgWiBNMTksNi42Mjk0NjExMiBMNiwxMy4wODIwNTMgTDYsNTMuMTkzNDEzMiBMMTksNTcuNTg5NjA3IEwxOSw2LjYyOTQ2MTEyIFogTTIxLDE5LjM5MzQ1MDIgTDIxLDQ1LjYxNTI5ODkgTDI0LDQ1LjYxNTI5ODkgTDI0LDQ3LjYzMjM2NDIgTDIxLDQ3LjYzMjM2NDIgTDIxLDU4Ljk5MTQ2NzQgQzIxLDU5LjMxNjIxNDkgMjAuODQ1LDU5LjYyMDc5MTcgMjAuNTg0LDU5LjgxMDM5NTkgQzIwLjQxMiw1OS45MzU0NTM5IDIwLjIwNyw2MCAyMCw2MCBDMTkuODk0LDYwIDE5Ljc4Niw1OS45ODI4NTQ5IDE5LjY4Miw1OS45NDc1NTYzIEw0LjY4Miw1NC44NzU2NDU2IEM0LjI3NCw1NC43Mzc0NzY3IDQsNTQuMzUyMjE3MiA0LDUzLjkxOTU1NjcgTDQsMTIuNDUzNzM3MSBDNCwxMi4wNzA0OTQ3IDQuMjE3LDExLjcxODUxNjggNC41NTksMTEuNTQ5MDgzMyBMMTkuNTU5LDQuMTA0MDk1MzkgQzE5Ljg2OCwzLjk0OTc4OTg5IDIwLjIzNSwzLjk2Nzk0MzQ4IDIwLjUyOCw0LjE1MjUwNDk1IEMyMC44MjEsNC4zMzYwNTc4OSAyMSw0LjY1OTc5Njg3IDIxLDUuMDA4NzQ5MTcgTDIxLDE3LjM3NjM4NSBMMjQsMTcuMzc2Mzg1IEwyNCwxOS4zOTM0NTAyIEwyMSwxOS4zOTM0NTAyIFogTTM2LDQ3LjYzMjM2NDIgTDM5LDQ3LjYzMjM2NDIgTDM5LDQ1LjYxNTI5ODkgTDM2LDQ1LjYxNTI5ODkgTDM2LDQ3LjYzMjM2NDIgWiBNMzYuMDY1LDE5LjM5MzQ1MDIgTDM5LDE5LjM5MzQ1MDIgTDM5LDE3LjM3NjM4NSBMMzYuMDY1LDE3LjM3NjM4NSBMMzYuMDY1LDE5LjM5MzQ1MDIgWiBNMzEuMDY1LDE5LjM5MzQ1MDIgTDM0LDE5LjM5MzQ1MDIgTDM0LDE3LjM3NjM4NSBMMzEuMDY1LDE3LjM3NjM4NSBMMzEuMDY1LDE5LjM5MzQ1MDIgWiBNMjYuMDY1LDE5LjM5MzQ1MDIgTDI5LDE5LjM5MzQ1MDIgTDI5LDE3LjM3NjM4NSBMMjYuMDY1LDE3LjM3NjM4NSBMMjYuMDY1LDE5LjM5MzQ1MDIgWiBNNTgsMTMuMDgyMDUzIEw0NSw2LjYyOTQ2MTEyIEw0NSw1Ny41ODk2MDcgTDU4LDUzLjE5MzQxMzIgTDU4LDEzLjA4MjA1MyBaIE02MCw1My45MTk1NTY3IEM2MCw1NC4zNTIyMTcyIDU5LjcyNiw1NC43Mzc0NzY3IDU5LjMxOCw1NC44NzU2NDU2IEw0NC4zMTgsNTkuOTQ3NTU2MyBDNDQuMjE0LDU5Ljk4Mjg1NDkgNDQuMTA2LDYwIDQ0LDYwIEM0My43OTMsNjAgNDMuNTg4LDU5LjkzNTQ1MzkgNDMuNDE2LDU5LjgxMDM5NTkgQzQzLjE1NSw1OS42MjA3OTE3IDQzLDU5LjMxNjIxNDkgNDMsNTguOTkxNDY3NCBMNDMsNDcuNjMyMzY0MiBMNDEuMDY1LDQ3LjYzMjM2NDIgTDQxLjA2NSw0NS42MTUyOTg5IEw0Myw0NS42MTUyOTg5IEw0MywxOS4zOTM0NTAyIEw0MS4wNjUsMTkuMzkzNDUwMiBMNDEuMDY1LDE3LjM3NjM4NSBMNDMsMTcuMzc2Mzg1IEw0Myw1LjAwODc0OTE3IEM0Myw0LjY1OTc5Njg3IDQzLjE3OSw0LjMzNjA1Nzg5IDQzLjQ3Miw0LjE1MjUwNDk1IEM0My43NjUsMy45Njc5NDM0OCA0NC4xMzEsMy45NDk3ODk4OSA0NC40NDEsNC4xMDQwOTUzOSBMNTkuNDQxLDExLjU0OTA4MzMgQzU5Ljc4MywxMS43MTg1MTY4IDYwLDEyLjA3MDQ5NDcgNjAsMTIuNDUzNzM3MSBMNjAsNTMuOTE5NTU2NyBaIE0zNC45MzQsMjUuODA2NzA5MyBMMzMuMDY2LDI1LjA4MjU4MjkgTDI4LjA2NiwzOC4xOTM1MDcyIEwyOS45MzQsMzguOTE3NjMzNyBMMzQuOTM0LDI1LjgwNjcwOTMgWiBNNDEuNzA3LDMyLjIwODg3NDUgQzQyLjA5OCwzMS44MTQ1MzgzIDQyLjA5OCwzMS4xNzYxMzcxIDQxLjcwNywzMC43ODI4MDk0IEwzNy43MDcsMjYuNzQ4Njc4OCBMMzYuMjkzLDI4LjE3NDc0NCBMMzkuNTg2LDMxLjQ5NTg0MTkgTDM2LjI5MywzNC44MTY5Mzk5IEwzNy43MDcsMzYuMjQzMDA1MSBMNDEuNzA3LDMyLjIwODg3NDUgWiBNMjYuMjkzLDM2LjI0MzAwNTEgTDIyLjI5MywzMi4yMDg4NzQ1IEMyMS45MDIsMzEuODE0NTM4MyAyMS45MDIsMzEuMTc2MTM3MSAyMi4yOTMsMzAuNzgyODA5NCBMMjYuMjkzLDI2Ljc0ODY3ODggTDI3LjcwNywyOC4xNzQ3NDQgTDI0LjQxNCwzMS40OTU4NDE5IEwyNy43MDcsMzQuODE2OTM5OSBMMjYuMjkzLDM2LjI0MzAwNTEgWiIvPiYjeGE7ICAgICAgICA8L2c+JiN4YTsgICAgPC9nPiYjeGE7PC9zdmc+;fontFamily=Courier New;labelBackgroundColor=none;fontStyle=1" vertex="1" parent="1">
          <mxGeometry x="199.5" y="280" width="81" height="81" as="geometry" />
        </mxCell>
        <mxCell id="2q6dvKmaqyQex-brDvFA-27" value="" style="shape=image;verticalLabelPosition=bottom;verticalAlign=top;imageAspect=0;aspect=fixed;image=data:image/svg+xml,PHN2ZyB4bWxuczp4bGluaz0iaHR0cDovL3d3dy53My5vcmcvMTk5OS94bGluayIgeG1sbnM9Imh0dHA6Ly93d3cudzMub3JnLzIwMDAvc3ZnIiB2ZXJzaW9uPSIxLjEiIHZpZXdCb3g9Ii0wLjUgLTAuNSA4MSA4MSIgaGVpZ2h0PSI4MSIgd2lkdGg9IjgxIj4mI3hhOyAgICAmI3hhOyAgICA8dGl0bGU+SWNvbi1BcmNoaXRlY3R1cmUvNjQvQXJjaF9BV1MtTGFtYmRhXzY0PC90aXRsZT4mI3hhOyAgICA8ZGVzYz5DcmVhdGVkIHdpdGggU2tldGNoLjwvZGVzYz4mI3hhOyAgICA8ZGVmcz4mI3hhOyAgICAgICAgPGxpbmVhckdyYWRpZW50IGlkPSJsaW5lYXJHcmFkaWVudC0xIiB5Mj0iMCUiIHgyPSIxMDAlIiB5MT0iMTAwJSIgeDE9IjAlIj4mI3hhOyAgICAgICAgICAgIDxzdG9wIG9mZnNldD0iMCUiIHN0b3AtY29sb3I9IiNDODUxMUIiLz4mI3hhOyAgICAgICAgICAgIDxzdG9wIG9mZnNldD0iMTAwJSIgc3RvcC1jb2xvcj0iI0ZGOTkwMCIvPiYjeGE7ICAgICAgICA8L2xpbmVhckdyYWRpZW50PiYjeGE7ICAgIDwvZGVmcz4mI3hhOyAgICA8ZyBmaWxsLXJ1bGU9ImV2ZW5vZGQiIGZpbGw9Im5vbmUiIHN0cm9rZS13aWR0aD0iMSIgc3Ryb2tlPSJub25lIiBpZD0iSWNvbi1BcmNoaXRlY3R1cmUvNjQvQXJjaF9BV1MtTGFtYmRhXzY0Ij4mI3hhOyAgICAgICAgPGcgZmlsbD0idXJsKCNsaW5lYXJHcmFkaWVudC0xKSIgaWQ9Ikljb24tQXJjaGl0ZWN0dXJlLUJHLzY0L0NvbXB1dGUiPiYjeGE7ICAgICAgICAgICAgPHJlY3QgaGVpZ2h0PSI4MCIgd2lkdGg9IjgwIiB5PSIwIiB4PSIwIiBpZD0iUmVjdGFuZ2xlIi8+JiN4YTsgICAgICAgIDwvZz4mI3hhOyAgICAgICAgPHBhdGggZmlsbD0iI0ZGRkZGRiIgaWQ9IkFXUy1MYW1iZGFfSWNvbl82NF9TcXVpZCIgZD0iTTI4LjAwNzUzNTIsNjYgTDE1LjU5MDcyNzQsNjYgTDI5LjMyMzU4ODUsMzcuMjk2IEwzNS41NDYwMjQ5LDUwLjEwNiBMMjguMDA3NTM1Miw2NiBaIE0zMC4yMTk2Njc0LDM0LjU1MyBDMzAuMDUxMjc2OCwzNC4yMDggMjkuNzAwNDYyOSwzMy45ODkgMjkuMzE3NTc0NSwzMy45ODkgTDI5LjMxNDU2NzYsMzMuOTg5IEMyOC45Mjg2NzIzLDMzLjk5IDI4LjU3Nzg1ODMsMzQuMjExIDI4LjQxMjQ3NDYsMzQuNTU4IEwxMy4wOTc5NDQsNjYuNTY5IEMxMi45NDk1OTk5LDY2Ljg3OSAxMi45NzA2NDg3LDY3LjI0MyAxMy4xNTUwNzY2LDY3LjUzNCBDMTMuMzM3NDk5OCw2Ny44MjQgMTMuNjU4MjQzOSw2OCAxNC4wMDIwNDE2LDY4IEwyOC42NDIwMDcyLDY4IEMyOS4wMjk5MDcxLDY4IDI5LjM4MTcyMzQsNjcuNzc3IDI5LjU0ODEwOTQsNjcuNDI4IEwzNy41NjM3MDYsNTAuNTI4IEMzNy42OTMwMDYsNTAuMjU0IDM3LjY5MjAwMzcsNDkuOTM3IDM3LjU1ODY5NDQsNDkuNjY1IEwzMC4yMTk2Njc0LDM0LjU1MyBaIE02NC45OTUzNDkxLDY2IEw1Mi42NTg3Mjc0LDY2IEwzMi44NjY4MDksMjQuNTcgQzMyLjcwMTQyNTMsMjQuMjIyIDMyLjM0ODYwNjcsMjQgMzEuOTYxNzA5MSwyNCBMMjMuODg5OTgyMiwyNCBMMjMuODk5MDAzMSwxNCBMMzkuNzE5NzA4MSwxNCBMNTkuNDIwNDE0OSw1NS40MjkgQzU5LjU4NTc5ODYsNTUuNzc3IDU5LjkzODYxNzIsNTYgNjAuMzI1NTE0OCw1NiBMNjQuOTk1MzQ5MSw1NiBMNjQuOTk1MzQ5MSw2NiBaIE02NS45OTc2NzQ1LDU0IEw2MC45NTk5ODY4LDU0IEw0MS4yNTkyOCwxMi41NzEgQzQxLjA5Mzg5NjMsMTIuMjIzIDQwLjc0MTA3NzcsMTIgNDAuMzUzMTc3OCwxMiBMMjIuODk3NjgsMTIgQzIyLjM0NTM5ODcsMTIgMjEuODk2MzU2OSwxMi40NDcgMjEuODk1MzU0NSwxMi45OTkgTDIxLjg4NDMyOSwyNC45OTkgQzIxLjg4NDMyOSwyNS4yNjUgMjEuOTg4NTcwOCwyNS41MTkgMjIuMTc4MDEwMywyNS43MDcgQzIyLjM2NTQ0NTIsMjUuODk1IDIyLjYyMDAzNTgsMjYgMjIuODg2NjU0NCwyNiBMMzEuMzI5MjQxNywyNiBMNTEuMTIyMTYyNSw2Ny40MyBDNTEuMjg4NTQ4NSw2Ny43NzggNTEuNjM5MzYyNCw2OCA1Mi4wMjYyNiw2OCBMNjUuOTk3Njc0NSw2OCBDNjYuNTUxOTYwNSw2OCA2Nyw2Ny41NTIgNjcsNjcgTDY3LDU1IEM2Nyw1NC40NDggNjYuNTUxOTYwNSw1NCA2NS45OTc2NzQ1LDU0IEw2NS45OTc2NzQ1LDU0IFoiLz4mI3hhOyAgICA8L2c+JiN4YTs8L3N2Zz4=;fontFamily=Courier New;labelBackgroundColor=none;fontStyle=1" vertex="1" parent="1">
          <mxGeometry x="359.5" y="280" width="81" height="81" as="geometry" />
        </mxCell>
        <mxCell id="2q6dvKmaqyQex-brDvFA-28" value="" style="shape=image;verticalLabelPosition=bottom;verticalAlign=top;imageAspect=0;aspect=fixed;image=data:image/svg+xml,PHN2ZyB4bWxuczp4bGluaz0iaHR0cDovL3d3dy53My5vcmcvMTk5OS94bGluayIgeG1sbnM9Imh0dHA6Ly93d3cudzMub3JnLzIwMDAvc3ZnIiB2ZXJzaW9uPSIxLjEiIHZpZXdCb3g9Ii0wLjUgLTAuNSA4MSA4MSIgaGVpZ2h0PSI4MSIgd2lkdGg9IjgxIj4mI3hhOyAgICAmI3hhOyAgICA8dGl0bGU+SWNvbi1BcmNoaXRlY3R1cmUvNjQvQXJjaF9BV1MtU2FnZU1ha2VyXzY0PC90aXRsZT4mI3hhOyAgICA8ZGVzYz5DcmVhdGVkIHdpdGggU2tldGNoLjwvZGVzYz4mI3hhOyAgICA8ZGVmcz4mI3hhOyAgICAgICAgPGxpbmVhckdyYWRpZW50IGlkPSJsaW5lYXJHcmFkaWVudC0xIiB5Mj0iMCUiIHgyPSIxMDAlIiB5MT0iMTAwJSIgeDE9IjAlIj4mI3hhOyAgICAgICAgICAgIDxzdG9wIG9mZnNldD0iMCUiIHN0b3AtY29sb3I9IiMwNTVGNEUiLz4mI3hhOyAgICAgICAgICAgIDxzdG9wIG9mZnNldD0iMTAwJSIgc3RvcC1jb2xvcj0iIzU2QzBBNyIvPiYjeGE7ICAgICAgICA8L2xpbmVhckdyYWRpZW50PiYjeGE7ICAgIDwvZGVmcz4mI3hhOyAgICA8ZyBmaWxsLXJ1bGU9ImV2ZW5vZGQiIGZpbGw9Im5vbmUiIHN0cm9rZS13aWR0aD0iMSIgc3Ryb2tlPSJub25lIiBpZD0iSWNvbi1BcmNoaXRlY3R1cmUvNjQvQXJjaF9BV1MtU2FnZU1ha2VyXzY0Ij4mI3hhOyAgICAgICAgPGcgZmlsbD0idXJsKCNsaW5lYXJHcmFkaWVudC0xKSIgaWQ9Ikljb24tQXJjaGl0ZWN0dXJlLUJHLzY0L01hY2hpbmUtTGVhcm5pbmciPiYjeGE7ICAgICAgICAgICAgPHJlY3QgaGVpZ2h0PSI4MCIgd2lkdGg9IjgwIiB5PSIwIiB4PSIwIiBpZD0iUmVjdGFuZ2xlIi8+JiN4YTsgICAgICAgIDwvZz4mI3hhOyAgICAgICAgPHBhdGggZmlsbD0iI0ZGRkZGRiIgaWQ9IkFXUy1TYWdlTWFrZXJfSWNvbl82NF9TcXVpZCIgZD0iTTU0LjAzNCwyNi4wMzM1NzMxIEM1NC4wMzQsMjYuNTkzNTY1NCA1My41NzgsMjcuMDQ5NTU5MiA1My4wMTcsMjcuMDQ5NTU5MiBDNTIuNDU4LDI3LjA0OTU1OTIgNTIuMDAyLDI2LjU5MzU2NTQgNTIuMDAyLDI2LjAzMzU3MzEgQzUyLjAwMiwyNS40NzM1ODA3IDUyLjQ1OCwyNS4wMTc1ODY5IDUzLjAxNywyNS4wMTc1ODY5IEM1My41NzgsMjUuMDE3NTg2OSA1NC4wMzQsMjUuNDczNTgwNyA1NC4wMzQsMjYuMDMzNTczMSBMNTQuMDM0LDI2LjAzMzU3MzEgWiBNNDguMDAyLDM2LjAwMDQzNyBDNDguMDAyLDM1LjQ0OTQ0NDUgNDguNDUsMzUuMDAwNDUwNiA0OS4wMDIsMzUuMDAwNDUwNiBDNDkuNTU0LDM1LjAwMDQ1MDYgNTAuMDAyLDM1LjQ0OTQ0NDUgNTAuMDAyLDM2LjAwMDQzNyBDNTAuMDAyLDM2LjU1MTQyOTQgNDkuNTU0LDM3LjAwMDQyMzMgNDkuMDAyLDM3LjAwMDQyMzMgQzQ4LjQ1LDM3LjAwMDQyMzMgNDguMDAyLDM2LjU1MTQyOTQgNDguMDAyLDM2LjAwMDQzNyBMNDguMDAyLDM2LjAwMDQzNyBaIE00OC4wMDIsNTUuMDAwMTc3NSBDNDguMDAyLDU0LjQ0OTE4NSA0OC40NSw1NC4wMDAxOTEyIDQ5LjAwMiw1NC4wMDAxOTEyIEM0OS41NTQsNTQuMDAwMTkxMiA1MC4wMDIsNTQuNDQ5MTg1IDUwLjAwMiw1NS4wMDAxNzc1IEM1MC4wMDIsNTUuNTUxMTcgNDkuNTU0LDU2LjAwMDE2MzkgNDkuMDAyLDU2LjAwMDE2MzkgQzQ4LjQ1LDU2LjAwMDE2MzkgNDguMDAyLDU1LjU1MTE3IDQ4LjAwMiw1NS4wMDAxNzc1IEw0OC4wMDIsNTUuMDAwMTc3NSBaIE01OC4wMDIsNDIuMDAwMzU1IEM1OC4wMDIsNDIuNTUxMzQ3NSA1Ny41NTQsNDMuMDAwMzQxNCA1Ny4wMDIsNDMuMDAwMzQxNCBDNTYuNDUsNDMuMDAwMzQxNCA1Ni4wMDIsNDIuNTUxMzQ3NSA1Ni4wMDIsNDIuMDAwMzU1IEM1Ni4wMDIsNDEuNDQ5MzYyNiA1Ni40NSw0MS4wMDAzNjg3IDU3LjAwMiw0MS4wMDAzNjg3IEM1Ny41NTQsNDEuMDAwMzY4NyA1OC4wMDIsNDEuNDQ5MzYyNiA1OC4wMDIsNDIuMDAwMzU1IEw1OC4wMDIsNDIuMDAwMzU1IFogTTY1LDQ1LjI3MjMxMDQgTDU5Ljk2Myw0Mi4zODIzNDk4IEM1OS45NzksNDIuMjU2MzUxNSA2MC4wMDIsNDIuMTMxMzUzMiA2MC4wMDIsNDIuMDAwMzU1IEM2MC4wMDIsNDAuMzQ2Mzc3NiA1OC42NTYsMzkuMDAwMzk2IDU3LjAwMiwzOS4wMDAzOTYgQzU1LjM0NywzOS4wMDAzOTYgNTQuMDAyLDQwLjM0NjM3NzYgNTQuMDAyLDQyLjAwMDM1NSBDNTQuMDAyLDQzLjY1NDMzMjQgNTUuMzQ3LDQ1LjAwMDMxNDEgNTcuMDAyLDQ1LjAwMDMxNDEgQzU3LjgwMSw0NS4wMDAzMTQxIDU4LjUyMyw0NC42ODEzMTg0IDU5LjA2MSw0NC4xNzEzMjU0IEw2My44ODYsNDYuOTM5Mjg3NiBMNTkuNTU1LDQ5LjEwNTI1OCBDNTkuMjE2LDQ5LjI3NTI1NTcgNTkuMDAyLDQ5LjYyMTI1MSA1OS4wMDIsNTAuMDAwMjQ1OCBMNTkuMDAyLDU4LjQ0MTEzMDUgTDQ2Ljk4Myw2NS44MzcwMjk1IEw0MS4wMDMsNjIuNDIwMDc2MiBMNDEuMDAzLDU2LjAwMDE2MzkgTDQ2LjE4Niw1Ni4wMDAxNjM5IEM0Ni42LDU3LjE2MTE0OCA0Ny43LDU4LjAwMDEzNjYgNDkuMDAyLDU4LjAwMDEzNjYgQzUwLjY1Niw1OC4wMDAxMzY2IDUyLjAwMiw1Ni42NTQxNTQ5IDUyLjAwMiw1NS4wMDAxNzc1IEM1Mi4wMDIsNTMuMzQ1MjAwMSA1MC42NTYsNTIuMDAwMjE4NSA0OS4wMDIsNTIuMDAwMjE4NSBDNDcuNyw1Mi4wMDAyMTg1IDQ2LjYsNTIuODM4MjA3IDQ2LjE4Niw1NC4wMDAxOTEyIEw0MS4wMDMsNTQuMDAwMTkxMiBMNDEuMDAzLDQwLjAwMDM4MjMgQzQxLjAwMywzOS42NDkzODcxIDQwLjgxOCwzOS4zMjMzOTE2IDQwLjUxNywzOS4xNDIzOTQxIEwzNS41MTYsMzYuMTQyNDM1IEwzNC40ODcsMzcuODU3NDExNiBMMzkuMDAzLDQwLjU2NjM3NDYgTDM5LjAwMyw0My41MDczMzQ1IEwzMy4wMDIsNDguMTIzMjcxNCBMMzMuMDAyLDQ0LjAwMDMyNzcgQzMzLjAwMiw0My42OTYzMzE5IDMyLjg2NCw0My40MDgzMzU4IDMyLjYyNyw0My4yMTkzMzg0IEwyOC4wMDIsMzkuNTE5Mzg4OSBMMjguMDAyLDM0LjUzNTQ1NyBMMzMuNTU2LDMwLjgzMjUwNzUgQzMzLjgzNSwzMC42NDY1MTAxIDM0LjAwMiwzMC4zMzQ1MTQzIDM0LjAwMiwzMC4wMDA1MTg5IEwzNC4wMDIsMjQuMDAwNjAwOCBMMzIuMDAyLDI0LjAwMDYwMDggTDMyLjAwMiwyOS40NjU1MjYyIEwyNy4wMTMsMzIuNzkwNDgwOCBMMjIuMDAyLDI5LjQ2MzUyNjIgTDIyLjAwMiwyMS41NzQ2MzM5IEwyNy4wMDIsMTguNjU4NjczOCBMMjcuMDAyLDI3LjAwMDU1OTkgTDI5LjAwMiwyNy4wMDA1NTk5IEwyOS4wMDIsMTcuNDkxNjg5NyBMMzMuMDA1LDE1LjE1NjcyMTYgTDM5LjAwMSwxOC42MTU2NzQ0IEwzOS4wMDIsMzEuMDAwNTA1MiBDMzkuMDAyLDMxLjM1OTUwMDMgMzkuMTk0LDMxLjY5MDQ5NTggMzkuNTA2LDMxLjg2ODQ5MzQgTDQ2LjA0MiwzNS42MDM0NDI0IEM0Ni4wMjQsMzUuNzM0NDQwNiA0Ni4wMDIsMzUuODY0NDM4OCA0Ni4wMDIsMzYuMDAwNDM3IEM0Ni4wMDIsMzcuNjU0NDE0NCA0Ny4zNDcsMzkuMDAwMzk2IDQ5LjAwMiwzOS4wMDAzOTYgQzUwLjY1NiwzOS4wMDAzOTYgNTIuMDAyLDM3LjY1NDQxNDQgNTIuMDAyLDM2LjAwMDQzNyBDNTIuMDAyLDM0LjM0NjQ1OTUgNTAuNjU2LDMzLjAwMDQ3NzkgNDkuMDAyLDMzLjAwMDQ3NzkgQzQ4LjIwOCwzMy4wMDA0Nzc5IDQ3LjQ5LDMzLjMxNTQ3MzYgNDYuOTUzLDMzLjgyMDQ2NjcgTDQxLjAwMiwzMC40MTk1MTMyIEw0MS4wMDEsMTguNjE3Njc0MyBMNDYuOTY0LDE1LjE3NjcyMTMgTDU4LjAwMiwyMi41MzU2MjA4IEw1OC4wMDIsMjUuMDAwNTg3MiBMNTUuODUxLDI1LjAwMDU4NzIgQzU1LjQyOSwyMy44NDQ2MDMgNTQuMzE4LDIzLjAxNzYxNDIgNTMuMDE3LDIzLjAxNzYxNDIgQzUxLjM1NCwyMy4wMTc2MTQyIDUwLjAwMiwyNC4zNzA1OTU4IDUwLjAwMiwyNi4wMzM1NzMxIEM1MC4wMDIsMjcuNjk2NTUwNCA1MS4zNTQsMjkuMDQ5NTMxOSA1My4wMTcsMjkuMDQ5NTMxOSBDNTQuMzQzLDI5LjA0OTUzMTkgNTUuNDcxLDI4LjE5MDU0MzYgNTUuODc1LDI3LjAwMDU1OTkgTDU4LjAwMiwyNy4wMDA1NTk5IEw1OC4wMDIsMzAuMDAwNTE4OSBDNTguMDAyLDMwLjM1OTUxNCA1OC4xOTQsMzAuNjkwNTA5NSA1OC41MDYsMzAuODY4NTA3IEw2NSwzNC41ODA0NTY0IEw2NSw0NS4yNzIzMTA0IFogTTMzLjAyLDY1LjgzNzAyOTUgTDI5Ljg2Nyw2My44OTcwNTYgTDM1LjU4Myw1OS44MTQxMTE4IEwzNC40MjEsNTguMTg2MTM0IEwyOC4wMTgsNjIuNzU5MDcxNiBMMjEuMDAyLDU4LjQ0MTEzMDUgTDIxLjAwMiw1MC41NjYyMzgxIEwyNS41MTYsNDcuODU3Mjc1MSBMMjQuNDg3LDQ2LjE0MjI5ODUgTDE5Ljk1OCw0OC44NjAyNjE0IEwxNS4wMDIsNDYuMzgyMjk1MiBMMTUuMDAxLDQwLjYxNzM3MzkgTDIwLjQ0OSwzNy44OTQ0MTExIEwxOS41NTUsMzYuMTA1NDM1NSBMMTUuMDAxLDM4LjM4MTQwNDQgTDE1LjAwMiwzNC41ODA0NTY0IEwyMC45NjMsMzEuMTc0NTAyOSBMMjYuMDAyLDM0LjUxOTQ1NzIgTDI2LjAwMiwzOS40ODAzODk0IEwyMC40NDksNDMuMTY3MzM5MSBMMjEuNTU1LDQ0LjgzMzMxNjMgTDI2Ljk1OCw0MS4yNDUzNjUzIEwzMS4wMDIsNDQuNDgwMzIxMiBMMzEuMDAyLDQ5LjY2MjI1MDQgTDI2LjM5Miw1My4yMDcyMDIgTDI3LjYxMSw1NC43OTIxODA0IEwzOS4wMDMsNDYuMDMwMyBMMzkuMDAzLDYyLjQxOTA3NjIgTDMzLjAyLDY1LjgzNzAyOTUgWiBNNjYuNDk2LDMzLjEzMjQ3NjEgTDYwLjAwMiwyOS40MjA1MjY4IEw2MC4wMDIsMjIuMDAwNjI4MSBDNjAuMDAyLDIxLjY2NTYzMjcgNTkuODM1LDIxLjM1MzYzNyA1OS41NTYsMjEuMTY4NjM5NSBMNDcuNTU2LDEzLjE2ODc0ODcgQzQ3LjI0LDEyLjk1ODc1MTYgNDYuODMyLDEyLjk0NDc1MTggNDYuNTAyLDEzLjEzNDc0OTIgTDQwLjAwNCwxNi44ODQ2OTggTDMzLjUwMiwxMy4xMzQ3NDkyIEMzMy4xOSwxMi45NTQ3NTE3IDMyLjgwNywxMi45NTQ3NTE3IDMyLjQ5OCwxMy4xMzY3NDkyIEwyMC40OTgsMjAuMTM2NjUzNiBDMjAuMTksMjAuMzE1NjUxMSAyMC4wMDIsMjAuNjQ0NjQ2NiAyMC4wMDIsMjEuMDAwNjQxOCBMMjAuMDAyLDI5LjQyMDUyNjggTDEzLjUwNiwzMy4xMzI0NzYxIEMxMy4xOTQsMzMuMzA5NDczNyAxMy4wMDIsMzMuNjQxNDY5MiAxMy4wMDIsMzQuMDAwNDY0MyBMMTMuMDAyLDM0LjQxNzQ1ODYgQzEzLjAwMSwzNC40Mzg0NTgzIDEzLDM0LjQ1ODQ1OCAxMywzNC40Nzk0NTc3IEwxMyw0NS4zNjMzMDkxIEMxMyw0NS4zODMzMDg4IDEzLjAwMSw0NS40MDMzMDg2IDEzLjAwMiw0NS40MjIzMDgzIEwxMy4wMDIsNDcuMDAwMjg2OCBDMTMuMDAyLDQ3LjM3OTI4MTYgMTMuMjE2LDQ3LjcyNTI3NjkgMTMuNTU1LDQ3Ljg5NDI3NDUgTDE5LjAwMiw1MC42MTgyMzc0IEwxOS4wMDIsNTkuMDAwMTIyOSBDMTkuMDAyLDU5LjM0NzExODIgMTkuMTgxLDU5LjY2OTExMzggMTkuNDc3LDU5Ljg1MTExMTMgTDMyLjQ3Nyw2Ny44NTEwMDIgQzMyLjYzOCw2Ny45NTAwMDA3IDMyLjgyLDY4IDMzLjAwMiw2OCBDMzMuMTczLDY4IDMzLjM0NCw2Ny45NTYwMDA2IDMzLjQ5OCw2Ny44NjgwMDE4IEw0MC4wMDMsNjQuMTUyMDUyNSBMNDYuNTA2LDY3Ljg2ODAwMTggQzQ2LjgyMSw2OC4wNDg5OTkzIDQ3LjIxMyw2OC4wNDE5OTk0IDQ3LjUyNiw2Ny44NTEwMDIgTDYwLjUyNiw1OS44NTExMTEzIEM2MC44MjIsNTkuNjY5MTEzOCA2MS4wMDIsNTkuMzQ3MTE4MiA2MS4wMDIsNTkuMDAwMTIyOSBMNjEuMDAyLDUwLjYxODIzNzQgTDY2LjQ0Nyw0Ny44OTQyNzQ1IEM2Ni43ODYsNDcuNzI1Mjc2OSA2Nyw0Ny4zNzkyODE2IDY3LDQ3LjAwMDI4NjggTDY3LDM0LjAwMDQ2NDMgQzY3LDMzLjY0MTQ2OTIgNjYuODA3LDMzLjMxMDQ3MzcgNjYuNDk2LDMzLjEzMjQ3NjEgTDY2LjQ5NiwzMy4xMzI0NzYxIFoiLz4mI3hhOyAgICA8L2c+JiN4YTs8L3N2Zz4=;fontFamily=Courier New;labelBackgroundColor=none;fontStyle=1" vertex="1" parent="1">
          <mxGeometry x="519.5" y="280" width="81" height="81" as="geometry" />
        </mxCell>
        <mxCell id="2q6dvKmaqyQex-brDvFA-29" value="" style="shape=image;verticalLabelPosition=bottom;verticalAlign=top;imageAspect=0;aspect=fixed;image=data:image/svg+xml,PHN2ZyB4bWxucz0iaHR0cDovL3d3dy53My5vcmcvMjAwMC9zdmciIHJvbGU9ImltZyIgdmlld0JveD0iMCAxLjEwMzk5NTA4NDc2MjU3MzIgMjQuMDAwMDM4MTQ2OTcyNjU2IDIxLjc5MTkzMTE1MjM0Mzc1IiBoZWlnaHQ9IjcyNi4zOTc3MDUwNzgxMjUiIHdpZHRoPSI4MDAuMDAxMjcxNTY1NzU1MiIgZmlsbD0iIzAwMDAwMCI+PHBhdGggZD0iTTE0LjIyIDIyLjgzNmMtMy44MTMtLjEwMy00LjE3LS4xOS01LjYzLTEuMzctLjkwMi0uNzI4LTEuMTc3LTEuMDQ1LTIuMzAxLTIuNjYyLTEuMjM2LTEuNzc2LTQuNzc1LTYuOTc3LTQuOTgtNy4zMTktLjEtLjE2NS0uNDM2LS42OTEtLjc0Ni0xLjE2OFMwIDkuMzYyIDAgOS4yNTVjMC0uMTA3LjYwNS0uNTA1IDEuMzQ1LS44ODYgMS4xNjMtLjU5OCAxLjUzLS43IDIuNzE5LS43NTQgMS4zNDYtLjA2MSAxLjQwMi0uMDQ3IDIuNjg3LjY4OSAxLjI4LjczMiAxLjM1Mi44MTEgMi44NjggMy4xM2EyNTQuNDI4IDI1NC40MjggMCAwIDEgMi4wMTYgMy4xMmMuMjUzLjQwNy42NDkuODY0Ljg4IDEuMDE2LjY5My40NTQgMS4wMDcuMzEgNC43MjQtMi4xNjYgMS43MDctMS4xMzggMy4yMDYtMy43MDcgMy43My02LjM5LjE5NC0uOTk3LjI0LTEuNi4xMy0xLjcxLS4xODYtLjE4Ny0xLjA4LjI3LTMuNTY5IDEuODI2LTMuNTg2IDIuMjQtNi4xNjEgMy43OS02LjI5OCAzLjc5LS4yIDAtLjY3NC0uNzQyLS44MDMtMS4yNi0uMDk1LS4zNzUuMDU2LS41MTcgMS40MzgtMS4zNjEgNC4wNDItMi40NjcgNS4xMDEtMy4xMiA1Ljc1MS0zLjU0IDIuNjMtMS43IDUuOTEtMy42NTUgNi4xMzMtMy42NTUuMzE2IDAgLjMxOC4wMzQuMDgxIDEuMjQ3LS4xMDEuNTItLjM0IDEuODktLjUzIDMuMDQ4LS43NTMgNC41OC0xLjc3NSA2Ljg3Mi0zLjk1MiA4Ljg2LS44MTguNzQ3LTMuMzMgMi4zOTktNC43NTMgMy4xMjQtMS4xOTQuNjEtMi42MTguNDU1LTMuNTMyLS4zODItLjIzLS4yMS0xLjMwNy0xLjczMy0yLjM5My0zLjM4NC0xLjA4Ni0xLjY1LTIuMjQzLTMuMjA2LTIuNTcxLTMuNDU3LS43NTQtLjU3NS0yLjMzLS44MDMtMi44NTEtLjQxMi0uNDM3LjMyOC0uMjk4LjY2MSAxLjEgMi42MzguNTU0Ljc4NSAxLjE5MSAxLjc0MyAxLjQxNiAyLjEyOS44MiAxLjQxMyAzLjE5IDQuNjE5IDMuODY0IDUuMjI3IDEuMDU5Ljk1NyAyLjA0NiAxLjE3MSA1LjM5NiAxLjE3MSAyLjI3OCAwIDIuODg1LS4wNSAyLjk1OS0uMjQyLjA1MS0uMTM0LS4xODgtLjY4Mi0uNTMxLTEuMjItLjc0Ny0xLjE2Ni0uNzY2LTEuMzgyLS4xNjMtMS44NTYuODg4LS42OTggMS4wMjEtLjU4NyAyLjk1MiAyLjQ2My4wOTkuMTU3LjQ4My43NDIuODU0IDEuMzAxLjM3MS41Ni43MTMgMS4xMTcuNzYgMS4yMzkuMTA4LjI4MS0yLjc0Ny4zNy03LjYzNy4yMzh6Ii8+PC9zdmc+;fontFamily=Courier New;labelBackgroundColor=none;fontStyle=1" vertex="1" parent="1">
          <mxGeometry x="39.5" y="284.20000000000005" width="80" height="72.61" as="geometry" />
        </mxCell>
        <mxCell id="2q6dvKmaqyQex-brDvFA-30" value="POST" style="text;html=1;fontSize=15;fontStyle=1;verticalAlign=middle;align=center;rounded=1;fontFamily=Courier New;labelBackgroundColor=none;" vertex="1" parent="1">
          <mxGeometry x="30" y="360" width="100" height="40" as="geometry" />
        </mxCell>
        <mxCell id="2q6dvKmaqyQex-brDvFA-31" value="API Gateway" style="text;html=1;fontSize=15;fontStyle=1;verticalAlign=middle;align=center;rounded=1;fontFamily=Courier New;labelBackgroundColor=none;" vertex="1" parent="1">
          <mxGeometry x="190" y="360" width="100" height="40" as="geometry" />
        </mxCell>
        <mxCell id="2q6dvKmaqyQex-brDvFA-32" value="&lt;div&gt;Lambda Functions&lt;/div&gt;" style="text;html=1;fontSize=15;fontStyle=1;verticalAlign=middle;align=center;rounded=1;fontFamily=Courier New;labelBackgroundColor=none;" vertex="1" parent="1">
          <mxGeometry x="350" y="360" width="100" height="40" as="geometry" />
        </mxCell>
        <mxCell id="2q6dvKmaqyQex-brDvFA-33" value="&lt;div&gt;SageMaker&lt;/div&gt;" style="text;html=1;fontSize=15;fontStyle=1;verticalAlign=middle;align=center;rounded=1;fontFamily=Courier New;labelBackgroundColor=none;" vertex="1" parent="1">
          <mxGeometry x="510" y="360" width="100" height="40" as="geometry" />
        </mxCell>
        <mxCell id="2q6dvKmaqyQex-brDvFA-34" value="" style="endArrow=classic;html=1;rounded=0;fontFamily=Courier New;labelBackgroundColor=none;fontColor=default;fontStyle=1" edge="1" parent="1">
          <mxGeometry width="50" height="50" relative="1" as="geometry">
            <mxPoint x="130" y="320" as="sourcePoint" />
            <mxPoint x="190" y="320" as="targetPoint" />
          </mxGeometry>
        </mxCell>
        <mxCell id="2q6dvKmaqyQex-brDvFA-35" value="" style="endArrow=classic;html=1;rounded=0;fontFamily=Courier New;labelBackgroundColor=none;fontColor=default;fontStyle=1" edge="1" parent="1">
          <mxGeometry width="50" height="50" relative="1" as="geometry">
            <mxPoint x="290" y="320.37" as="sourcePoint" />
            <mxPoint x="350" y="320.37" as="targetPoint" />
          </mxGeometry>
        </mxCell>
        <mxCell id="2q6dvKmaqyQex-brDvFA-36" value="" style="endArrow=classic;html=1;rounded=0;fontFamily=Courier New;labelBackgroundColor=none;fontColor=default;fontStyle=1" edge="1" parent="1">
          <mxGeometry width="50" height="50" relative="1" as="geometry">
            <mxPoint x="450" y="320.37" as="sourcePoint" />
            <mxPoint x="510" y="320.37" as="targetPoint" />
          </mxGeometry>
        </mxCell>
        <mxCell id="2q6dvKmaqyQex-brDvFA-39" value="&lt;div&gt;Training&lt;/div&gt;" style="text;strokeColor=none;fillColor=none;html=1;fontSize=24;fontStyle=1;verticalAlign=middle;align=center;fontFamily=Courier New;labelBackgroundColor=none;" vertex="1" parent="1">
          <mxGeometry x="270" y="20" width="100" height="40" as="geometry" />
        </mxCell>
        <mxCell id="2q6dvKmaqyQex-brDvFA-70" style="edgeStyle=orthogonalEdgeStyle;rounded=0;orthogonalLoop=1;jettySize=auto;html=1;entryX=0;entryY=0.25;entryDx=0;entryDy=0;curved=1;fontFamily=Courier New;labelBackgroundColor=none;fontColor=default;fontStyle=1" edge="1" parent="1" source="2q6dvKmaqyQex-brDvFA-40" target="2q6dvKmaqyQex-brDvFA-62">
          <mxGeometry relative="1" as="geometry" />
        </mxCell>
        <mxCell id="2q6dvKmaqyQex-brDvFA-40" value="" style="rounded=1;whiteSpace=wrap;html=1;fillStyle=auto;fontFamily=Courier New;labelBackgroundColor=none;fontStyle=1;fillColor=light-dark(#FFFFFF,#660033);" vertex="1" parent="1">
          <mxGeometry x="20" y="60" width="600" height="140" as="geometry" />
        </mxCell>
        <mxCell id="2q6dvKmaqyQex-brDvFA-45" value="&lt;div&gt;Python&lt;/div&gt;" style="text;html=1;fontSize=15;fontStyle=1;verticalAlign=middle;align=center;rounded=1;fontFamily=Courier New;labelBackgroundColor=none;" vertex="1" parent="1">
          <mxGeometry x="30" y="160" width="100" height="40" as="geometry" />
        </mxCell>
        <mxCell id="2q6dvKmaqyQex-brDvFA-46" value="HuggingFace" style="text;html=1;fontSize=15;fontStyle=1;verticalAlign=middle;align=center;rounded=1;fontFamily=Courier New;labelBackgroundColor=none;" vertex="1" parent="1">
          <mxGeometry x="190" y="160" width="100" height="40" as="geometry" />
        </mxCell>
        <mxCell id="2q6dvKmaqyQex-brDvFA-47" value="PyTorch" style="text;html=1;fontSize=15;fontStyle=1;verticalAlign=middle;align=center;rounded=1;fontFamily=Courier New;labelBackgroundColor=none;" vertex="1" parent="1">
          <mxGeometry x="350" y="160" width="100" height="40" as="geometry" />
        </mxCell>
        <mxCell id="2q6dvKmaqyQex-brDvFA-48" value="&lt;div&gt;CUDA&lt;/div&gt;" style="text;html=1;fontSize=15;fontStyle=1;verticalAlign=middle;align=center;rounded=1;fontFamily=Courier New;labelBackgroundColor=none;" vertex="1" parent="1">
          <mxGeometry x="510" y="160" width="100" height="40" as="geometry" />
        </mxCell>
        <mxCell id="2q6dvKmaqyQex-brDvFA-49" value="" style="endArrow=classic;html=1;rounded=0;fontFamily=Courier New;labelBackgroundColor=none;fontColor=default;fontStyle=1" edge="1" parent="1">
          <mxGeometry width="50" height="50" relative="1" as="geometry">
            <mxPoint x="130" y="120" as="sourcePoint" />
            <mxPoint x="190" y="120" as="targetPoint" />
          </mxGeometry>
        </mxCell>
        <mxCell id="2q6dvKmaqyQex-brDvFA-50" value="" style="endArrow=classic;html=1;rounded=0;fontFamily=Courier New;labelBackgroundColor=none;fontColor=default;fontStyle=1" edge="1" parent="1">
          <mxGeometry width="50" height="50" relative="1" as="geometry">
            <mxPoint x="290" y="120.37" as="sourcePoint" />
            <mxPoint x="350" y="120.37" as="targetPoint" />
          </mxGeometry>
        </mxCell>
        <mxCell id="2q6dvKmaqyQex-brDvFA-51" value="" style="endArrow=classic;html=1;rounded=0;fontFamily=Courier New;labelBackgroundColor=none;fontColor=default;fontStyle=1" edge="1" parent="1">
          <mxGeometry width="50" height="50" relative="1" as="geometry">
            <mxPoint x="450" y="120.37" as="sourcePoint" />
            <mxPoint x="510" y="120.37" as="targetPoint" />
          </mxGeometry>
        </mxCell>
        <mxCell id="2q6dvKmaqyQex-brDvFA-37" value="" style="shape=image;verticalLabelPosition=bottom;verticalAlign=top;imageAspect=0;aspect=fixed;image=data:image/svg+xml,PHN2ZyB4bWxucz0iaHR0cDovL3d3dy53My5vcmcvMjAwMC9zdmciIHhtbG5zOnhsaW5rPSJodHRwOi8vd3d3LnczLm9yZy8xOTk5L3hsaW5rIiBoZWlnaHQ9IjEzNC42NjgwOTA4MjAzMTI1IiB3aWR0aD0iMTExLjE2MTM2MTY5NDMzNTk0IiBpZD0ic3ZnMiIgdmVyc2lvbj0iMS4wIiB2aWV3Qm94PSItMi4zODQxODU3OTEwMTU2MjVlLTcgMCAxMTEuMTYxMzYxNjk0MzM1OTQgMTM0LjY2ODA5MDgyMDMxMjUiPiYjeGE7ICA8bWV0YWRhdGEgaWQ9Im1ldGFkYXRhMzcxIj4mI3hhOyAgICAmI3hhOyAgICAgICYjeGE7ICAgICAgICBpbWFnZS9zdmcreG1sJiN4YTsgICAgICAgICYjeGE7ICAgICAgJiN4YTsgICAgJiN4YTsgIDwvbWV0YWRhdGE+JiN4YTsgICYjeGE7ICA8ZGVmcyBpZD0iZGVmczQiPiYjeGE7ICAgIDxsaW5lYXJHcmFkaWVudCBpZD0ibGluZWFyR3JhZGllbnQyNzk1Ij4mI3hhOyAgICAgIDxzdG9wIGlkPSJzdG9wMjc5NyIgb2Zmc2V0PSIwIiBzdHlsZT0ic3RvcC1jb2xvcjojYjhiOGI4O3N0b3Atb3BhY2l0eTowLjQ5ODAzOTIyOyIvPiYjeGE7ICAgICAgPHN0b3AgaWQ9InN0b3AyNzk5IiBvZmZzZXQ9IjEiIHN0eWxlPSJzdG9wLWNvbG9yOiM3ZjdmN2Y7c3RvcC1vcGFjaXR5OjA7Ii8+JiN4YTsgICAgPC9saW5lYXJHcmFkaWVudD4mI3hhOyAgICA8bGluZWFyR3JhZGllbnQgaWQ9ImxpbmVhckdyYWRpZW50Mjc4NyI+JiN4YTsgICAgICA8c3RvcCBpZD0ic3RvcDI3ODkiIG9mZnNldD0iMCIgc3R5bGU9InN0b3AtY29sb3I6IzdmN2Y3ZjtzdG9wLW9wYWNpdHk6MC41OyIvPiYjeGE7ICAgICAgPHN0b3AgaWQ9InN0b3AyNzkxIiBvZmZzZXQ9IjEiIHN0eWxlPSJzdG9wLWNvbG9yOiM3ZjdmN2Y7c3RvcC1vcGFjaXR5OjA7Ii8+JiN4YTsgICAgPC9saW5lYXJHcmFkaWVudD4mI3hhOyAgICA8bGluZWFyR3JhZGllbnQgaWQ9ImxpbmVhckdyYWRpZW50MzY3NiI+JiN4YTsgICAgICA8c3RvcCBpZD0ic3RvcDM2NzgiIG9mZnNldD0iMCIgc3R5bGU9InN0b3AtY29sb3I6I2IyYjJiMjtzdG9wLW9wYWNpdHk6MC41OyIvPiYjeGE7ICAgICAgPHN0b3AgaWQ9InN0b3AzNjgwIiBvZmZzZXQ9IjEiIHN0eWxlPSJzdG9wLWNvbG9yOiNiM2IzYjM7c3RvcC1vcGFjaXR5OjA7Ii8+JiN4YTsgICAgPC9saW5lYXJHcmFkaWVudD4mI3hhOyAgICA8bGluZWFyR3JhZGllbnQgaWQ9ImxpbmVhckdyYWRpZW50MzIzNiI+JiN4YTsgICAgICA8c3RvcCBpZD0ic3RvcDMyNDQiIG9mZnNldD0iMCIgc3R5bGU9InN0b3AtY29sb3I6I2Y0ZjRmNDtzdG9wLW9wYWNpdHk6MSIvPiYjeGE7ICAgICAgPHN0b3AgaWQ9InN0b3AzMjQwIiBvZmZzZXQ9IjEiIHN0eWxlPSJzdG9wLWNvbG9yOndoaXRlO3N0b3Atb3BhY2l0eToxIi8+JiN4YTsgICAgPC9saW5lYXJHcmFkaWVudD4mI3hhOyAgICA8bGluZWFyR3JhZGllbnQgaWQ9ImxpbmVhckdyYWRpZW50NDY3MSI+JiN4YTsgICAgICA8c3RvcCBpZD0ic3RvcDQ2NzMiIG9mZnNldD0iMCIgc3R5bGU9InN0b3AtY29sb3I6I2ZmZDQzYjtzdG9wLW9wYWNpdHk6MTsiLz4mI3hhOyAgICAgIDxzdG9wIGlkPSJzdG9wNDY3NSIgb2Zmc2V0PSIxIiBzdHlsZT0ic3RvcC1jb2xvcjojZmZlODczO3N0b3Atb3BhY2l0eToxIi8+JiN4YTsgICAgPC9saW5lYXJHcmFkaWVudD4mI3hhOyAgICA8bGluZWFyR3JhZGllbnQgaWQ9ImxpbmVhckdyYWRpZW50NDY4OSI+JiN4YTsgICAgICA8c3RvcCBpZD0ic3RvcDQ2OTEiIG9mZnNldD0iMCIgc3R5bGU9InN0b3AtY29sb3I6IzVhOWZkNDtzdG9wLW9wYWNpdHk6MTsiLz4mI3hhOyAgICAgIDxzdG9wIGlkPSJzdG9wNDY5MyIgb2Zmc2V0PSIxIiBzdHlsZT0ic3RvcC1jb2xvcjojMzA2OTk4O3N0b3Atb3BhY2l0eToxOyIvPiYjeGE7ICAgIDwvbGluZWFyR3JhZGllbnQ+JiN4YTsgICAgPGxpbmVhckdyYWRpZW50IGdyYWRpZW50VHJhbnNmb3JtPSJ0cmFuc2xhdGUoMTAwLjI3MDIsOTkuNjExMTYpIiBncmFkaWVudFVuaXRzPSJ1c2VyU3BhY2VPblVzZSIgeGxpbms6aHJlZj0iI2xpbmVhckdyYWRpZW50NDY3MSIgaWQ9ImxpbmVhckdyYWRpZW50Mjk4NyIgeTI9IjE0NC43NTcxNyIgeDI9Ii02NS4zMDg1MDIiIHkxPSIxNDQuNzU3MTciIHgxPSIyMjQuMjM5OTYiLz4mI3hhOyAgICA8bGluZWFyR3JhZGllbnQgZ3JhZGllbnRUcmFuc2Zvcm09InRyYW5zbGF0ZSgxMDAuMjcwMiw5OS42MTExNikiIGdyYWRpZW50VW5pdHM9InVzZXJTcGFjZU9uVXNlIiB4bGluazpocmVmPSIjbGluZWFyR3JhZGllbnQ0Njg5IiBpZD0ibGluZWFyR3JhZGllbnQyOTkwIiB5Mj0iNzYuMzEzMTMzIiB4Mj0iMjYuNjcwMjk4IiB5MT0iNzcuNDc1OTgzIiB4MT0iMTcyLjk0MjA4Ii8+JiN4YTsgICAgPGxpbmVhckdyYWRpZW50IHkyPSI3Ni4zMTMxMzMiIHgyPSIyNi42NzAyOTgiIHkxPSI3Ny40NzU5ODMiIHgxPSIxNzIuOTQyMDgiIGdyYWRpZW50VHJhbnNmb3JtPSJ0cmFuc2xhdGUoMTAwLjI3MDIsOTkuNjExMTYpIiBncmFkaWVudFVuaXRzPSJ1c2VyU3BhY2VPblVzZSIgaWQ9ImxpbmVhckdyYWRpZW50MjU4NyIgeGxpbms6aHJlZj0iI2xpbmVhckdyYWRpZW50NDY4OSIvPiYjeGE7ICAgIDxsaW5lYXJHcmFkaWVudCB5Mj0iMTQ0Ljc1NzE3IiB4Mj0iLTY1LjMwODUwMiIgeTE9IjE0NC43NTcxNyIgeDE9IjIyNC4yMzk5NiIgZ3JhZGllbnRUcmFuc2Zvcm09InRyYW5zbGF0ZSgxMDAuMjcwMiw5OS42MTExNikiIGdyYWRpZW50VW5pdHM9InVzZXJTcGFjZU9uVXNlIiBpZD0ibGluZWFyR3JhZGllbnQyNTg5IiB4bGluazpocmVmPSIjbGluZWFyR3JhZGllbnQ0NjcxIi8+JiN4YTsgICAgPGxpbmVhckdyYWRpZW50IHkyPSI3Ni4zMTMxMzMiIHgyPSIyNi42NzAyOTgiIHkxPSI3Ny40NzU5ODMiIHgxPSIxNzIuOTQyMDgiIGdyYWRpZW50VHJhbnNmb3JtPSJ0cmFuc2xhdGUoMTAwLjI3MDIsOTkuNjExMTYpIiBncmFkaWVudFVuaXRzPSJ1c2VyU3BhY2VPblVzZSIgaWQ9ImxpbmVhckdyYWRpZW50MjI0OCIgeGxpbms6aHJlZj0iI2xpbmVhckdyYWRpZW50NDY4OSIvPiYjeGE7ICAgIDxsaW5lYXJHcmFkaWVudCB5Mj0iMTQ0Ljc1NzE3IiB4Mj0iLTY1LjMwODUwMiIgeTE9IjE0NC43NTcxNyIgeDE9IjIyNC4yMzk5NiIgZ3JhZGllbnRUcmFuc2Zvcm09InRyYW5zbGF0ZSgxMDAuMjcwMiw5OS42MTExNikiIGdyYWRpZW50VW5pdHM9InVzZXJTcGFjZU9uVXNlIiBpZD0ibGluZWFyR3JhZGllbnQyMjUwIiB4bGluazpocmVmPSIjbGluZWFyR3JhZGllbnQ0NjcxIi8+JiN4YTsgICAgPGxpbmVhckdyYWRpZW50IHkyPSIxNDQuNzU3MTciIHgyPSItNjUuMzA4NTAyIiB5MT0iMTQ0Ljc1NzE3IiB4MT0iMjI0LjIzOTk2IiBncmFkaWVudFRyYW5zZm9ybT0ibWF0cml4KDAuNTYyNTQxLDAsMCwwLjU2Nzk3MiwtMTEuNTk3NCwtNy42MDk1NCkiIGdyYWRpZW50VW5pdHM9InVzZXJTcGFjZU9uVXNlIiBpZD0ibGluZWFyR3JhZGllbnQyMjU1IiB4bGluazpocmVmPSIjbGluZWFyR3JhZGllbnQ0NjcxIi8+JiN4YTsgICAgPGxpbmVhckdyYWRpZW50IHkyPSI3Ni4zMTMxMzMiIHgyPSIyNi42NzAyOTgiIHkxPSI3Ni4xNzYyMjQiIHgxPSIxNzIuOTQyMDgiIGdyYWRpZW50VHJhbnNmb3JtPSJtYXRyaXgoMC41NjI1NDEsMCwwLDAuNTY3OTcyLC0xMS41OTc0LC03LjYwOTU0KSIgZ3JhZGllbnRVbml0cz0idXNlclNwYWNlT25Vc2UiIGlkPSJsaW5lYXJHcmFkaWVudDIyNTgiIHhsaW5rOmhyZWY9IiNsaW5lYXJHcmFkaWVudDQ2ODkiLz4mI3hhOyAgICA8cmFkaWFsR3JhZGllbnQgZ3JhZGllbnRVbml0cz0idXNlclNwYWNlT25Vc2UiIGdyYWRpZW50VHJhbnNmb3JtPSJtYXRyaXgoMSwwLDAsMC4xNzc5NjYsMCwxMDguNzQzNCkiIHI9IjI5LjAzNjkxMyIgZnk9IjEzMi4yODU3NSIgZng9IjYxLjUxODg4MyIgY3k9IjEzMi4yODU3NSIgY3g9IjYxLjUxODg4MyIgaWQ9InJhZGlhbEdyYWRpZW50MjgwMSIgeGxpbms6aHJlZj0iI2xpbmVhckdyYWRpZW50Mjc5NSIvPiYjeGE7ICAgIDxsaW5lYXJHcmFkaWVudCB5Mj0iMTM3LjI3Mjk5IiB4Mj0iMTEyLjAzMTQ0IiB5MT0iMTkyLjM1MTc2IiB4MT0iMTUwLjk2MTExIiBncmFkaWVudFRyYW5zZm9ybT0ibWF0cml4KDAuNTYyNTQxLDAsMCwwLjU2Nzk3MiwtMTQuOTkxMTIsLTExLjcwMjM3MSkiIGdyYWRpZW50VW5pdHM9InVzZXJTcGFjZU9uVXNlIiBpZD0ibGluZWFyR3JhZGllbnQxNDc1IiB4bGluazpocmVmPSIjbGluZWFyR3JhZGllbnQ0NjcxIi8+JiN4YTsgICAgPGxpbmVhckdyYWRpZW50IHkyPSIxMTQuMzk3NjciIHgyPSIxMzUuNjY1MjUiIHkxPSIyMC42MDM3ODEiIHgxPSIyNi42NDg5MzciIGdyYWRpZW50VHJhbnNmb3JtPSJtYXRyaXgoMC41NjI1NDEsMCwwLDAuNTY3OTcyLC0xNC45OTExMiwtMTEuNzAyMzcxKSIgZ3JhZGllbnRVbml0cz0idXNlclNwYWNlT25Vc2UiIGlkPSJsaW5lYXJHcmFkaWVudDE0NzgiIHhsaW5rOmhyZWY9IiNsaW5lYXJHcmFkaWVudDQ2ODkiLz4mI3hhOyAgICA8cmFkaWFsR3JhZGllbnQgcj0iMjkuMDM2OTEzIiBmeT0iMTMyLjI4NTc1IiBmeD0iNjEuNTE4ODgzIiBjeT0iMTMyLjI4NTc1IiBjeD0iNjEuNTE4ODgzIiBncmFkaWVudFRyYW5zZm9ybT0ibWF0cml4KDEuNzQ5MDU2NWUtOCwtMC4yMzk5NDY5NiwxLjA1NDY2OCwzLjc5MTU0NTdlLTcsLTgzLjcwMDgsMTQyLjQ2MjAxKSIgZ3JhZGllbnRVbml0cz0idXNlclNwYWNlT25Vc2UiIGlkPSJyYWRpYWxHcmFkaWVudDE0ODAiIHhsaW5rOmhyZWY9IiNsaW5lYXJHcmFkaWVudDI3OTUiLz4mI3hhOyAgPC9kZWZzPiYjeGE7ICA8cGF0aCBpZD0icGF0aDE5NDgiIGQ9Ik0gNTQuOTE4Nzg1LDkuMTkyNzQyMWUtNCBDIDUwLjMzNTEzMiwwLjAyMjIxNzI3IDQ1Ljk1Nzg0NiwwLjQxMzEzNjk3IDQyLjEwNjI4NSwxLjA5NDY2OTMgMzAuNzYwMDY5LDMuMDk5MTczMSAyOC43MDAwMzYsNy4yOTQ3NzE0IDI4LjcwMDAzNSwxNS4wMzIxNjkgdiAxMC4yMTg3NSBoIDI2LjgxMjUgdiAzLjQwNjI1IGggLTI2LjgxMjUgLTEwLjA2MjUgYyAtNy43OTI0NTksMCAtMTQuNjE1NzU4OCw0LjY4MzcxNyAtMTYuNzQ5OTk5OCwxMy41OTM3NSAtMi40NjE4MTk5OCwxMC4yMTI5NjYgLTIuNTcxMDE1MDgsMTYuNTg2MDIzIDAsMjcuMjUgMS45MDU5MjgzLDcuOTM3ODUyIDYuNDU3NTQzMiwxMy41OTM3NDggMTQuMjQ5OTk5OCwxMy41OTM3NSBoIDkuMjE4NzUgdiAtMTIuMjUgYyAwLC04Ljg0OTkwMiA3LjY1NzE0NCwtMTYuNjU2MjQ4IDE2Ljc1LC0xNi42NTYyNSBoIDI2Ljc4MTI1IGMgNy40NTQ5NTEsMCAxMy40MDYyNTMsLTYuMTM4MTY0IDEzLjQwNjI1LC0xMy42MjUgdiAtMjUuNTMxMjUgYyAwLC03LjI2NjMzODYgLTYuMTI5OTgsLTEyLjcyNDc3NzEgLTEzLjQwNjI1LC0xMy45Mzc0OTk3IEMgNjQuMjgxNTQ4LDAuMzI3OTQzOTcgNTkuNTAyNDM4LC0wLjAyMDM3OTAzIDU0LjkxODc4NSw5LjE5Mjc0MjFlLTQgWiBtIC0xNC41LDguMjE4NzUwMTI1NzkgYyAyLjc2OTU0NywwIDUuMDMxMjUsMi4yOTg2NDU2IDUuMDMxMjUsNS4xMjQ5OTk2IC0yZS02LDIuODE2MzM2IC0yLjI2MTcwMyw1LjA5Mzc1IC01LjAzMTI1LDUuMDkzNzUgLTIuNzc5NDc2LC0xZS02IC01LjAzMTI1LC0yLjI3NzQxNSAtNS4wMzEyNSwtNS4wOTM3NSAtMTBlLTcsLTIuODI2MzUzIDIuMjUxNzc0LC01LjEyNDk5OTYgNS4wMzEyNSwtNS4xMjQ5OTk2IHoiIHN0eWxlPSJmaWxsOnVybCgjbGluZWFyR3JhZGllbnQxNDc4KTtmaWxsLW9wYWNpdHk6MSIvPiYjeGE7ICA8cGF0aCBpZD0icGF0aDE5NTAiIGQ9Im0gODUuNjM3NTM1LDI4LjY1NzE2OSB2IDExLjkwNjI1IGMgMCw5LjIzMDc1NSAtNy44MjU4OTUsMTYuOTk5OTk5IC0xNi43NSwxNyBoIC0yNi43ODEyNSBjIC03LjMzNTgzMywwIC0xMy40MDYyNDksNi4yNzg0ODMgLTEzLjQwNjI1LDEzLjYyNSB2IDI1LjUzMTI0NyBjIDAsNy4yNjYzNDQgNi4zMTg1ODgsMTEuNTQwMzI0IDEzLjQwNjI1LDEzLjYyNTAwNCA4LjQ4NzMzMSwyLjQ5NTYxIDE2LjYyNjIzNywyLjk0NjYzIDI2Ljc4MTI1LDAgNi43NTAxNTUsLTEuOTU0MzkgMTMuNDA2MjUzLC01Ljg4NzYxIDEzLjQwNjI1LC0xMy42MjUwMDQgViA4Ni41MDA5MTkgaCAtMjYuNzgxMjUgdiAtMy40MDYyNSBoIDI2Ljc4MTI1IDEzLjQwNjI1NCBjIDcuNzkyNDYxLDAgMTAuNjk2MjUxLC01LjQzNTQwOCAxMy40MDYyNDEsLTEzLjU5Mzc1IDIuNzk5MzMsLTguMzk4ODg2IDIuNjgwMjIsLTE2LjQ3NTc3NiAwLC0yNy4yNSAtMS45MjU3OCwtNy43NTc0NDEgLTUuNjAzODcsLTEzLjU5Mzc1IC0xMy40MDYyNDEsLTEzLjU5Mzc1IHogbSAtMTUuMDYyNSw2NC42NTYyNSBjIDIuNzc5NDc4LDNlLTYgNS4wMzEyNSwyLjI3NzQxNyA1LjAzMTI1LDUuMDkzNzQ3IC0yZS02LDIuODI2MzU0IC0yLjI1MTc3NSw1LjEyNTAwNCAtNS4wMzEyNSw1LjEyNTAwNCAtMi43Njk1NSwwIC01LjAzMTI1LC0yLjI5ODY1IC01LjAzMTI1LC01LjEyNTAwNCAyZS02LC0yLjgxNjMzIDIuMjYxNjk3LC01LjA5Mzc0NyA1LjAzMTI1LC01LjA5Mzc0NyB6IiBzdHlsZT0iZmlsbDp1cmwoI2xpbmVhckdyYWRpZW50MTQ3NSk7ZmlsbC1vcGFjaXR5OjEiLz4mI3hhOyAgPGVsbGlwc2Ugcnk9IjYuOTY3MzExOSIgcng9IjM1LjkzMDk3NyIgY3k9IjEyNy43MDA3OSIgY3g9IjU1LjgxNjc2MSIgaWQ9InBhdGgxODk0IiBzdHlsZT0ib3BhY2l0eTowLjQ0MzgyO2ZpbGw6dXJsKCNyYWRpYWxHcmFkaWVudDE0ODApO2ZpbGwtb3BhY2l0eToxO2ZpbGwtcnVsZTpub256ZXJvO3N0cm9rZTpub25lO3N0cm9rZS13aWR0aDoxNS40MTc0O3N0cm9rZS1taXRlcmxpbWl0OjQ7c3Ryb2tlLWRhc2hhcnJheTpub25lO3N0cm9rZS1vcGFjaXR5OjEiLz4mI3hhOzwvc3ZnPg==;fontFamily=Courier New;labelBackgroundColor=none;fontStyle=1" vertex="1" parent="1">
          <mxGeometry x="40" y="80" width="80" height="97.29" as="geometry" />
        </mxCell>
        <mxCell id="2q6dvKmaqyQex-brDvFA-54" value="" style="shape=image;verticalLabelPosition=bottom;verticalAlign=top;imageAspect=0;aspect=fixed;image=data:image/svg+xml,PHN2ZyBwcmVzZXJ2ZUFzcGVjdFJhdGlvPSJ4TWlkWU1pZCIgeG1sbnM6eGxpbms9Imh0dHA6Ly93d3cudzMub3JnLzE5OTkveGxpbmsiIHhtbG5zPSJodHRwOi8vd3d3LnczLm9yZy8yMDAwL3N2ZyIgdmVyc2lvbj0iMS4xIiB2aWV3Qm94PSIwIDAgMjU2IDMwOS40MzUxODA2NjQwNjI1IiBoZWlnaHQ9Ijc5OC41NDI0MDE3MTM3MDk2IiB3aWR0aD0iNjYwLjY0NTE2MTI5MDMyMjYiPiYjeGE7ICAgIDxnPiYjeGE7ICAgICAgICA8cGF0aCBmaWxsPSIjRUU0QzJDIiBkPSJNMjE4LjI4MTAzNyw5MC4xMDY0MTIgQzI2OC41NzI5ODgsMTQwLjM5ODM2MyAyNjguNTcyOTg4LDIyMS4wNzUwMzQgMjE4LjI4MTAzNywyNzEuNzE2MjM1IEMxNjkuMDM2ODM1LDMyMi4wMDgxODYgODguMDEwOTE0MSwzMjIuMDA4MTg2IDM3LjcxODk2MzIsMjcxLjcxNjIzNSBDLTEyLjU3Mjk4NzcsMjIxLjQyNDI4NCAtMTIuNTcyOTg3NywxNDAuMzk4MzYzIDM3LjcxODk2MzIsOTAuMTA2NDEyIEwxMjcuODI1Mzc1LDAgTDEyNy44MjUzNzUsNDUuMDUzMjA2IEwxMTkuNDQzMzgzLDUzLjQzNTE5NzggTDU5LjcyMTY5MTcsMTEzLjE1Njg4OSBDMjIuMDAyNzI4NSwxNTAuMTc3MzUzIDIyLjAwMjcyODUsMjEwLjk0Njc5NCA1OS43MjE2OTE3LDI0OC42NjU3NTcgQzk2Ljc0MjE1NTUsMjg2LjM4NDcyIDE1Ny41MTE1OTYsMjg2LjM4NDcyIDE5NS4yMzA1NTksMjQ4LjY2NTc1NyBDMjMyLjk0OTUyMywyMTEuNjQ1MjkzIDIzMi45NDk1MjMsMTUwLjg3NTg1MyAxOTUuMjMwNTU5LDExMy4xNTY4ODkgTDIxOC4yODEwMzcsOTAuMTA2NDEyIFogTTE3My4yMjc4MzEsODQuNTE4NDE3NSBDMTYzLjk2OTMzOCw4NC41MTg0MTc1IDE1Ni40NjM4NDcsNzcuMDEyOTI2MyAxNTYuNDYzODQ3LDY3Ljc1NDQzMzggQzE1Ni40NjM4NDcsNTguNDk1OTQxMyAxNjMuOTY5MzM4LDUwLjk5MDQ1MDIgMTczLjIyNzgzMSw1MC45OTA0NTAyIEMxODIuNDg2MzIzLDUwLjk5MDQ1MDIgMTg5Ljk5MTgxNCw1OC40OTU5NDEzIDE4OS45OTE4MTQsNjcuNzU0NDMzOCBDMTg5Ljk5MTgxNCw3Ny4wMTI5MjYzIDE4Mi40ODYzMjMsODQuNTE4NDE3NSAxNzMuMjI3ODMxLDg0LjUxODQxNzUgWiI+JiN4YTsmI3hhOzwvcGF0aD4mI3hhOyAgICA8L2c+JiN4YTs8L3N2Zz4=;fontFamily=Courier New;labelBackgroundColor=none;fontStyle=1" vertex="1" parent="1">
          <mxGeometry x="364.44" y="74" width="71.12" height="86" as="geometry" />
        </mxCell>
        <mxCell id="2q6dvKmaqyQex-brDvFA-38" value="" style="shape=image;verticalLabelPosition=bottom;verticalAlign=top;imageAspect=0;aspect=fixed;image=data:image/svg+xml,PHN2ZyB4bWxucz0iaHR0cDovL3d3dy53My5vcmcvMjAwMC9zdmciIGZpbGw9Im5vbmUiIHZpZXdCb3g9IjI1LjQ2OTgzOTA5NjA2OTMzNiAzMi4xNDUwMDA0NTc3NjM2NyAyMDUuOTU2MjA3Mjc1MzkwNjIgMTkxLjIwMTIxNzY1MTM2NzIiIGhlaWdodD0iMTkxLjIwMTIxNzY1MTM2NzIiIHdpZHRoPSIyMDUuOTU2MjA3Mjc1MzkwNjIiPiYjeGE7PHBhdGggZmlsbD0id2hpdGUiIGQ9Ik0yMzAuNzIxIDE3Mi43QzIzMC4xODMgMTcwLjY3MyAyMjkuMzEzIDE2OC43NSAyMjguMTQ2IDE2Ny4wMDhDMjI4LjM5NiAxNjYuMDkxIDIyOC41ODcgMTY1LjE1OSAyMjguNzE0IDE2NC4yMTdDMjI5LjU0MyAxNTguMjQxIDIyNy40NzEgMTUyLjc3IDIyMy41NjcgMTQ4LjUzN0MyMjEuNDUyIDE0Ni4yMjUgMjE5LjE4NSAxNDQuNjk4IDIxNi43ODQgMTQzLjc2MUMyMTguMzYgMTM3LjAxOCAyMTkuMTU3IDEzMC4xMTcgMjE5LjE2MSAxMjMuMTkzQzIxOS4xNjEgMTIwLjAzIDIxOC45ODIgMTE2LjkzMiAyMTguNjgyIDExMy44OEMyMTguNTI2IDExMi4zNTYgMjE4LjMzNyAxMTAuODM2IDIxOC4xMTUgMTA5LjMyQzIxNy40MjggMTA0Ljg0NyAyMTYuNDA4IDEwMC40MzEgMjE1LjA2NCA5Ni4xMUMyMTQuMTgzIDkzLjI3MDcgMjEzLjE2NCA5MC40NzYgMjEyLjAxIDg3LjczNkMyMTAuMjgxIDgzLjY3ODIgMjA4LjI2MiA3OS43NSAyMDUuOTY5IDc1Ljk4MkMyMDQuNDY1IDczLjQ3NSAyMDIuODI3IDcxLjA1MDggMjAxLjA2MiA2OC43MkMyMDAuMTk3IDY3LjU0MyAxOTkuMjk2IDY2LjM5MzggMTk4LjM1OCA2NS4yNzRDMTk1LjU4IDYxLjg5OCAxOTIuNTYxIDU4LjcyNzcgMTg5LjMyNSA1NS43ODhDMTg4LjI1IDU0Ljc5OTcgMTg3LjE0NSA1My44NDUzIDE4Ni4wMSA1Mi45MjZDMTg0Ljg5MyA1MS45OTQzIDE4My43NTEgNTEuMDkyNyAxODIuNTg2IDUwLjIyMkMxODAuMjQxIDQ4LjQ3NjYgMTc3LjgxOCA0Ni44MzkyIDE3NS4zMjQgNDUuMzE1QzE2MS41NDMgMzYuOTQ1IDE0NS4zODIgMzIuMTQ1IDEyOC4xMDkgMzIuMTQ1Qzc3LjgxNyAzMi4xNDUgMzcuMDU3IDcyLjkwNyAzNy4wNTcgMTIzLjE5NkMzNy4wNTUgMTMwLjIwOCAzNy44NjcgMTM3LjE5NiAzOS40NzcgMTQ0LjAyQzM3LjMxNyAxNDQuOTU4IDM1LjI0NyAxNDYuNDIgMzMuMzI3IDE0OC41MzVDMjkuNDI0IDE1Mi43NjYgMjcuMzUxIDE1OC4yMTcgMjguMTggMTY0LjE5M0MyOC4zMDYgMTY1LjE0MiAyOC40OTUgMTY2LjA4MiAyOC43NDcgMTY3LjAwNkMyNy41ODExIDE2OC43NDkgMjYuNzExNyAxNzAuNjczIDI2LjE3NCAxNzIuN0MyNC45NzQgMTc3LjI2MSAyNS4zNjkgMTgxLjM3NCAyNi44OTQgMTg0Ljk3OEMyNS4yMzYgMTg5LjY4OCAyNS42NSAxOTQuNzA0IDI3LjgwOSAxOTkuMDY1QzI5LjM3OSAyMDIuMjUgMzEuNjI2IDIwNC43MTQgMzQuMzk2IDIwNi45MTZDMzcuNjg5IDIwOS41MzQgNDEuODExIDIxMS43NTggNDYuNzgzIDIxMy44OTJDNTIuNzE1IDIxNi40MjIgNTkuOTU2IDIxOC43OTkgNjMuMjQ5IDIxOS42NzFDNzEuNzU1IDIyMS44NzMgNzkuOTExIDIyMy4yNjkgODguMTc3IDIyMy4zMzdDOTkuOTU0IDIyMy40NDYgMTEwLjA5NiAyMjAuNjc3IDExNy4zNTcgMjEzLjU5QzEyMC45MjQgMjE0LjAyNyAxMjQuNTE1IDIxNC4yNDYgMTI4LjEwOSAyMTQuMjQ0QzEzMS45MDYgMjE0LjIzNiAxMzUuNjk5IDIxMy45OTcgMTM5LjQ2NyAyMTMuNTI5QzE0Ni43MTEgMjIwLjY2MSAxNTYuODkyIDIyMy40NTUgMTY4LjcxMiAyMjMuMzQzQzE3Ni45NzcgMjIzLjI3NyAxODUuMTMzIDIyMS44ODEgMTkzLjYxNyAyMTkuNjc2QzE5Ni45MzIgMjE4LjgwNCAyMDQuMTcgMjE2LjQyNyAyMTAuMTA1IDIxMy44OTdDMjE1LjA3NyAyMTEuNzYgMjE5LjE5OSAyMDkuNTM2IDIyMi41MTQgMjA2LjkyMkMyMjUuMjYzIDIwNC43MTkgMjI3LjUwOCAyMDIuMjU2IDIyOS4wNzkgMTk5LjA3MUMyMzEuMjYgMTk0LjcwOSAyMzEuNjUyIDE4OS42OTMgMjMwLjAxNyAxODQuOTgzQzIzMS41MjcgMTgxLjM3OSAyMzEuOTIgMTc3LjI1NyAyMzAuNzIxIDE3Mi43Wk0yMjIuMjgxIDE4NC42NzNDMjIzLjk1MiAxODcuODQ0IDIyNC4wNTkgMTkxLjQyNyAyMjIuNTg1IDE5NC43NjRDMjIwLjM0OSAxOTkuODIxIDIxNC43OTUgMjAzLjgwNSAyMDQuMDA4IDIwOC4wODJDMTk3LjMgMjEwLjc0MiAxOTEuMTU4IDIxMi40NDMgMTkxLjEwNCAyMTIuNDU4QzE4Mi4yMzIgMjE0Ljc1OSAxNzQuMjA4IDIxNS45MjggMTY3LjI2MiAyMTUuOTI4QzE1NS43NiAyMTUuOTI4IDE0Ny4yMDEgMjEyLjc1NCAxNDEuNzczIDIwNi40ODZDMTMyLjU5NCAyMDguMDUgMTIzLjIyMiAyMDguMTAzIDExNC4wMjYgMjA2LjY0NEMxMDguNTkxIDIxMi44MDggMTAwLjA4MSAyMTUuOTI4IDg4LjY3NiAyMTUuOTI4QzgxLjcyOSAyMTUuOTI4IDczLjcwNiAyMTQuNzU5IDY0LjgzMyAyMTIuNDU4QzY0Ljc3OSAyMTIuNDQzIDU4LjYzOSAyMTAuNzQyIDUxLjkyOSAyMDguMDgyQzQxLjE0MyAyMDMuODA1IDM1LjU4NyAxOTkuODI0IDMzLjM1MiAxOTQuNzY0QzMxLjg3OCAxOTEuNDI3IDMxLjk4NSAxODcuODQ0IDMzLjY1NiAxODQuNjczQzMzLjgxIDE4NC4zNzggMzMuOTc2IDE4NC4wOTEgMzQuMTUzIDE4My44MTNDMzMuMTUxNiAxODIuMzA5IDMyLjQ3OTkgMTgwLjYxIDMyLjE4MiAxNzguODI3QzMxLjg4NDIgMTc3LjA0NSAzMS45NjcgMTc1LjIyIDMyLjQyNSAxNzMuNDcyQzMzLjA4OSAxNzAuOTQ5IDM0LjQ2IDE2OC44NTEgMzYuMzIyIDE2Ny4zNDRDMzUuNDI1IDE2NS44NyAzNC44MzY1IDE2NC4yMyAzNC41OTIgMTYyLjUyMkMzNC4wNTYgMTU4LjgwOCAzNS4yODkgMTU1LjEgMzguMDYyIDE1Mi4wNzZDNDAuMjIyIDE0OS43MjMgNDMuMjc1IDE0OC40MjggNDYuNjU1IDE0OC40MjhINDYuNzQ1QzQ0LjE5NjUgMTQwLjI1OSA0Mi45MDQ0IDEzMS43NSA0Mi45MTMgMTIzLjE5M0M0Mi45MTMgNzYuNTIyIDgwLjc0OSAzOC42ODMgMTI3LjQyNyAzOC42ODNDMTc0LjEwNCAzOC42ODMgMjExLjk0IDc2LjUxOCAyMTEuOTQgMTIzLjE5M0MyMTEuOTQ3IDEzMS43NzMgMjEwLjY0NiAxNDAuMzA0IDIwOC4wODEgMTQ4LjQ5MkMyMDguNDg5IDE0OC40NTIgMjA4Ljg4OSAxNDguNDMyIDIwOS4yODIgMTQ4LjQzMUMyMTIuNjYyIDE0OC40MzEgMjE1LjcxNiAxNDkuNzI2IDIxNy44NzQgMTUyLjA3OUMyMjAuNjQ3IDE1NS4xIDIyMS44ODEgMTU4LjgxMSAyMjEuMzQ0IDE2Mi41MjVDMjIxLjEgMTY0LjIzMyAyMjAuNTExIDE2NS44NzMgMjE5LjYxNSAxNjcuMzQ3QzIyMS40NzcgMTY4Ljg1NCAyMjIuODQ5IDE3MC45NTIgMjIzLjUxMiAxNzMuNDc1QzIyMy45NyAxNzUuMjIzIDIyNC4wNTMgMTc3LjA0OCAyMjMuNzU1IDE3OC44MzFDMjIzLjQ1OCAxODAuNjEzIDIyMi43ODYgMTgyLjMxMiAyMjEuNzg0IDE4My44MTZDMjIxLjk2MSAxODQuMDkxIDIyMi4xMjkgMTg0LjM3OCAyMjIuMjgxIDE4NC42NzNaIi8+JiN4YTs8cGF0aCBmaWxsPSIjRkY5RDAwIiBkPSJNMjIxLjc4NCAxODMuODE2QzIyMi43ODYgMTgyLjMxMiAyMjMuNDU4IDE4MC42MTMgMjIzLjc1NiAxNzguODMxQzIyNC4wNTMgMTc3LjA0OCAyMjMuOTcgMTc1LjIyMyAyMjMuNTEyIDE3My40NzVDMjIyLjg0OCAxNzAuOTUyIDIyMS40NzYgMTY4Ljg1NCAyMTkuNjE1IDE2Ny4zNDdDMjIwLjUxMiAxNjUuODczIDIyMS4xIDE2NC4yMzMgMjIxLjM0NCAxNjIuNTI1QzIyMS44ODEgMTU4LjgxMSAyMjAuNjQ4IDE1NS4xMDMgMjE3Ljg3NCAxNTIuMDc5QzIxNS43MTYgMTQ5LjcyNiAyMTIuNjYyIDE0OC40MzEgMjA5LjI4MiAxNDguNDMxQzIwOC44ODkgMTQ4LjQzMSAyMDguNDg5IDE0OC40NTIgMjA4LjA4MSAxNDguNDkyQzIxMC42NDMgMTQwLjMwNCAyMTEuOTQyIDEzMS43NzQgMjExLjkzMyAxMjMuMTk1QzIxMS45MzMgNzYuNTIzMSAxNzQuMDk3IDM4LjY4NTEgMTI3LjQyNCAzOC42ODUxQzgwLjc1IDM4LjY4NTEgNDIuOTA5OSA3Ni41MTkxIDQyLjkwOTkgMTIzLjE5NUM0Mi45MDE1IDEzMS43NTIgNDQuMTkzNiAxNDAuMjYxIDQ2Ljc0MiAxNDguNDNINDYuNjUxOUM0My4yNzE5IDE0OC40MyA0MC4yMTkgMTQ5LjcyNCAzOC4wNiAxNTIuMDc3QzM1LjI4NyAxNTUuMDk4IDM0LjA1MjkgMTU4LjgxIDM0LjU4OTkgMTYyLjUyM0MzNC44MzQ2IDE2NC4yMzEgMzUuNDIzMSAxNjUuODcyIDM2LjMxOTkgMTY3LjM0NkMzNC40NTc5IDE2OC44NTIgMzMuMDg2IDE3MC45NSAzMi40MjIgMTczLjQ3M0MzMS45NjQyIDE3NS4yMjIgMzEuODgxNyAxNzcuMDQ3IDMyLjE3OTkgMTc4LjgzQzMyLjQ3ODEgMTgwLjYxMiAzMy4xNTAxIDE4Mi4zMTIgMzQuMTUxOSAxODMuODE2QzMzLjk3MzkgMTg0LjA5NCAzMy44MDk5IDE4NC4zODEgMzMuNjU0OSAxODQuNjc2QzMxLjk4NDkgMTg3Ljg0NyAzMS44NzcgMTkxLjQzIDMzLjM1MiAxOTQuNzY3QzM1LjU4OCAxOTkuODI0IDQxLjE0MTkgMjAzLjgwOCA1MS45Mjg5IDIwOC4wODVDNTguNjM1OSAyMTAuNzQ1IDY0Ljc3OSAyMTIuNDQ2IDY0LjgzMyAyMTIuNDYxQzczLjcwNSAyMTQuNzYyIDgxLjcyOSAyMTUuOTMxIDg4LjY3NSAyMTUuOTMxQzEwMC4wODEgMjE1LjkzMSAxMDguNTkxIDIxMi44MTEgMTE0LjAyNiAyMDYuNjQ3QzEyMy4yMjIgMjA4LjEwNiAxMzIuNTk0IDIwOC4wNTIgMTQxLjc3MyAyMDYuNDg5QzE0Ny4yMDEgMjEyLjc1NyAxNTUuNzYgMjE1LjkzMSAxNjcuMjYyIDIxNS45MzFDMTc0LjIwOCAyMTUuOTMxIDE4Mi4yMzIgMjE0Ljc2MiAxOTEuMTAzIDIxMi40NjFDMTkxLjE1OCAyMTIuNDQ2IDE5Ny4yOTggMjEwLjc0NSAyMDQuMDA4IDIwOC4wODVDMjE0Ljc5NSAyMDMuODA4IDIyMC4zNSAxOTkuODI0IDIyMi41ODUgMTk0Ljc2N0MyMjQuMDU5IDE5MS40MyAyMjMuOTUyIDE4Ny44NDcgMjIyLjI4MSAxODQuNjc2QzIyMi4xMjkgMTg0LjM3OSAyMjEuOTYxIDE4NC4wOTEgMjIxLjc4NCAxODMuODE2Wk0xMTAuMTM3IDE5Ni45OTdDMTA5LjY2OSAxOTcuODE1IDEwOS4xNjggMTk4LjYxNCAxMDguNjM1IDE5OS4zOTFDMTA3LjIzIDIwMS40NDggMTA1LjM4MiAyMDMuMDIgMTAzLjIzNyAyMDQuMTg4Qzk5LjEzNjkgMjA2LjQyNCA5My45NDcgMjA3LjIwNSA4OC42NzUgMjA3LjIwNUM4MC4zNDYgMjA3LjIwNSA3MS44MDggMjA1LjI1NiA2Ny4wMjMgMjA0LjAxNUM2Ni43ODcgMjAzLjk1NCAzNy42ODkgMTk1LjczNSA0MS4zNzMgMTg4LjczOUM0MS45OTMgMTg3LjU2MiA0My4wMTI5IDE4Ny4wOTIgNDQuMjk3OSAxODcuMDkyQzQ5LjQ4NDkgMTg3LjA5MiA1OC45Mjk5IDE5NC44MTYgNjIuOTg4OSAxOTQuODE2QzYzLjg5NTkgMTk0LjgxNiA2NC41MzU5IDE5NC40MyA2NC43OTY5IDE5My40ODhDNjYuNTI2OSAxODcuMjg0IDM4LjUwMzkgMTg0LjY3NiA0MC44NjM5IDE3NS42OTJDNDEuMjc5OSAxNzQuMTAyIDQyLjQxIDE3My40NTYgNDMuOTk4IDE3My40NTZDNTAuODU2IDE3My40NTUgNjYuMjQ4IDE4NS41MTYgNjkuNDY3IDE4NS41MTZDNjkuNzE0IDE4NS41MTYgNjkuODkwOSAxODUuNDQzIDY5Ljk4NjkgMTg1LjI5MUM3MC4wMDA5IDE4NS4yNjggNzAuMDE1IDE4NS4yNDYgNzAuMDI4IDE4NS4yMjJDNzEuNTM5IDE4Mi43MjcgNzAuNjcxOSAxODAuOTEzIDYwLjMyMDkgMTc0LjU3M0w1OS4zMjY5IDE3My45NjhDNDcuOTM1OSAxNjcuMDc0IDM5Ljk0MDkgMTYyLjkyNSA0NC40ODc5IDE1Ny45NzVDNDUuMDEwOSAxNTcuNDA0IDQ1Ljc1MjkgMTU3LjE1MSA0Ni42NTM5IDE1Ny4xNTFDNDcuNzIxOSAxNTcuMTUxIDQ5LjAxNDkgMTU3LjUwOCA1MC40Mzg5IDE1OC4xMDhDNTYuNDU0OSAxNjAuNjQ1IDY0Ljc5MyAxNjcuNTY0IDY4LjI3NiAxNzAuNTgxQzY4LjgyMzkgMTcxLjA1NyA2OS4zNjgzIDE3MS41MzggNjkuOTA4OSAxNzIuMDIyQzY5LjkwODkgMTcyLjAyMiA3NC4zMTkgMTc2LjYwOCA3Ni45ODUgMTc2LjYwOEM3Ny41OTkgMTc2LjYwOCA3OC4xMTk5IDE3Ni4zNjYgNzguNDcyOSAxNzUuNzY4QzgwLjM2NCAxNzIuNTggNjAuOTA5OSAxNTcuODM4IDU5LjgxMjkgMTUxLjc1NUM1OS4wNjg5IDE0Ny42MzQgNjAuMzM0OSAxNDUuNTQ2IDYyLjY3NDkgMTQ1LjU0NkM2My43ODc5IDE0NS41NDYgNjUuMTQ1OSAxNDYuMDIgNjYuNjQ0OSAxNDYuOTcxQzcxLjI5NDkgMTQ5LjkyMiA4MC4yNzI5IDE2NS4zNSA4My41NTk5IDE3MS4zNTJDODQuNjYxOSAxNzMuMzYzIDg2LjU0MjkgMTc0LjIxMyA4OC4yMzc5IDE3NC4yMTNDOTEuNjAwOSAxNzQuMjEzIDk0LjIyOTkgMTcwLjg3IDg4LjU0NTkgMTY2LjYyMkM4MC4wMDI5IDE2MC4yMyA4My4wMDEgMTQ5Ljc4MiA4Ny4wNzggMTQ5LjEzOUM4Ny4yNTIgMTQ5LjExMSA4Ny40Mjc5IDE0OS4wOTcgODcuNjAyOSAxNDkuMDk3QzkxLjMxMDkgMTQ5LjA5NyA5Mi45NDU5IDE1NS40ODYgOTIuOTQ1OSAxNTUuNDg2QzkyLjk0NTkgMTU1LjQ4NiA5Ny43Mzk5IDE2Ny41MjQgMTA1Ljk3NSAxNzUuNzUzQzExMy40NDcgMTgzLjIyMiAxMTQuNDkxIDE4OS4zNTEgMTEwLjEzNyAxOTYuOTk3Wk0xMzYuNzY2IDE5OC40MDdMMTM2LjMzOSAxOTguNDU4TDEzNS42MTEgMTk4LjU0MUMxMzUuMjI4IDE5OC41ODEgMTM0Ljg0NCAxOTguNjE5IDEzNC40NTkgMTk4LjY1NEwxMzQuMDg0IDE5OC42ODhMMTMzLjc0MSAxOTguNzE3TDEzMy4yNTUgMTk4Ljc1NkwxMzIuNzE4IDE5OC43OTVMMTMyLjE4MiAxOTguODNMMTMyLjA2MyAxOTguODM4QzEzMS45MjMgMTk4Ljg0NiAxMzEuNzgzIDE5OC44NTUgMTMxLjY0MSAxOTguODYyTDEzMS40NjIgMTk4Ljg3MkMxMzEuMjk2IDE5OC44ODEgMTMxLjEzIDE5OC44ODkgMTMwLjk2MiAxOTguODk2TDEzMC4zODEgMTk4LjkyMUwxMjkuODU0IDE5OC45MzlMMTI5LjUwMiAxOTguOTQ5SDEyOS4zMjNDMTI5LjIxMyAxOTguOTQ5IDEyOS4xMDQgMTk4Ljk1NSAxMjguOTk0IDE5OC45NTZIMTI4LjgyQzEyOC43MSAxOTguOTU2IDEyOC42MDEgMTk4Ljk1NiAxMjguNDkxIDE5OC45NjFMMTI4LjA0MyAxOTguOTY3SDEyNy40MThDMTI2LjkyNyAxOTguOTY3IDEyNi40MzcgMTk4Ljk2MiAxMjUuOTQ5IDE5OC45NTJMMTI1LjU1MyAxOTguOTQzQzEyNS40NCAxOTguOTQzIDEyNS4zMjcgMTk4LjkzOCAxMjUuMjE2IDE5OC45MzRMMTI0Ljc5NiAxOTguOTIyTDEyNC4yNzUgMTk4LjkwMkwxMjMuODA1IDE5OC44ODFMMTIzLjY4NCAxOTguODc2TDEyMy4yMzcgMTk4Ljg1M0MxMjMuMTEyIDE5OC44NDYgMTIyLjk4OSAxOTguODQgMTIyLjg2NSAxOTguODMxTDEyMi41NzYgMTk4LjgxNEMxMjIuMjEzIDE5OC43OTEgMTIxLjg1IDE5OC43NjYgMTIxLjQ4NyAxOTguNzM4TDEyMS4xMDcgMTk4LjcwN0MxMjAuOTQ3IDE5OC42OTUgMTIwLjc4NyAxOTguNjggMTIwLjYyOCAxOTguNjY2QzEyMC40NDEgMTk4LjY1IDEyMC4yNTQgMTk4LjYzMiAxMjAuMDY3IDE5OC42MTRDMTE5Ljc1NCAxOTguNTg1IDExOS40NDEgMTk4LjU1MyAxMTkuMTI4IDE5OC41MTlIMTE5LjExM0MxMjMuNjgzIDE4OC4zMjQgMTIxLjM3MiAxNzguODAyIDExMi4xMzcgMTY5LjU3NUMxMDYuMDggMTYzLjUyNiAxMDIuMDUxIDE1NC41OTQgMTAxLjIxNSAxNTIuNjMzQzk5LjUyMjkgMTQ2LjgyOCA5NS4wNDUgMTQwLjM3NSA4Ny42MDggMTQwLjM3NUM4Ni45NzkgMTQwLjM3NSA4Ni4zNTEgMTQwLjQyNSA4NS43MyAxNDAuNTIzQzgyLjQ3MiAxNDEuMDM2IDc5LjYyNCAxNDIuOTExIDc3LjU5MiAxNDUuNzMzQzc1LjM5NiAxNDMuMDAyIDczLjI2MiAxNDAuODMxIDcxLjMzMiAxMzkuNjA1QzY4LjQyMiAxMzcuNzYgNjUuNTE3OSAxMzYuODI0IDYyLjY4ODkgMTM2LjgyNEM1OS4xNTc5IDEzNi44MjQgNTYuMDAxOSAxMzguMjc0IDUzLjgwMTkgMTQwLjkwNEw1My43NDU5IDE0MC45NzFDNTMuNzAzOSAxNDAuNzk4IDUzLjY2MzkgMTQwLjYyNSA1My42MjI5IDE0MC40NTFMNTMuNjE3OSAxNDAuNDI4QzUzLjE5OTIgMTM4LjYzOCA1Mi44NDc3IDEzNi44MzMgNTIuNTYzOSAxMzUuMDE2QzUyLjU2MzkgMTM1LjAwNCA1Mi41NjM5IDEzNC45OTIgNTIuNTU3OSAxMzQuOThDNTIuNTM1OSAxMzQuODQzIDUyLjUxNTkgMTM0LjcwNSA1Mi40OTQ5IDEzNC41NjhDNTIuNDMzNCAxMzQuMTYyIDUyLjM3NTcgMTMzLjc1NSA1Mi4zMjE5IDEzMy4zNDhDNTIuMjk3OSAxMzMuMTYzIDUyLjI3MTkgMTMyLjk3OCA1Mi4yNDg5IDEzMi43OTNMNTIuMTgwOSAxMzIuMjM4QzUyLjE1ODkgMTMyLjA1MyA1Mi4xNDA5IDEzMS44ODUgNTIuMTIwOSAxMzEuNzA5TDUyLjExNSAxMzEuNjY1QzUyLjAzNTEgMTMwLjk0NSA1MS45NjUxIDEzMC4yMjUgNTEuOTA0OSAxMjkuNTAzTDUxLjg4MjkgMTI5LjIyNkw1MS44NDc5IDEyOC43NTRDNTEuODM3OSAxMjguNjI1IDUxLjgyNzkgMTI4LjQ5NSA1MS44MjA5IDEyOC4zNjVDNTEuODIwOSAxMjguMzM0IDUxLjgxNTkgMTI4LjMwNCA1MS44MTQ5IDEyOC4yNzVDNTEuNzg5NSAxMjcuOTEzIDUxLjc2NzggMTI3LjU1IDUxLjc0OTkgMTI3LjE4N0M1MS43Mzk5IDEyNi45OTggNTEuNzI5OSAxMjYuODEgNTEuNzIxOSAxMjYuNjJMNTEuNzAxOSAxMjYuMTI0TDUxLjY5NjkgMTI1Ljk3NEw1MS42ODA5IDEyNS41MTdMNTEuNjcwOSAxMjUuMTI4QzUxLjY3MDkgMTI0Ljk3MyA1MS42NjI5IDEyNC44MTggNTEuNjYwOSAxMjQuNjYzQzUxLjY1NzkgMTI0LjUwOCA1MS42NTM5IDEyNC4zMzggNTEuNjUyOSAxMjQuMTc0QzUxLjY1MDkgMTI0LjAxIDUxLjY1MjkgMTIzLjg0OCA1MS42NDc5IDEyMy42ODVDNTEuNjQzOSAxMjMuNTIxIDUxLjY0NzkgMTIzLjM1OCA1MS42NDc5IDEyMy4xOTVDNTEuNjQ3OSA4MS4zNDIxIDg1LjU3ODkgNDcuNDExMSAxMjcuNDM2IDQ3LjQxMTFDMTY5LjI5MiA0Ny40MTExIDIwMy4yMjIgODEuMzQxMSAyMDMuMjIyIDEyMy4xOTVWMTI0LjE3NEMyMDMuMjIyIDEyNC4zMzcgMjAzLjIxNyAxMjQuNTAxIDIwMy4yMTQgMTI0LjY2M0MyMDMuMjE0IDEyNC43OTggMjAzLjIwOCAxMjQuOTMxIDIwMy4yMDQgMTI1LjA2OEMyMDMuMjA0IDEyNS4xODggMjAzLjE5OSAxMjUuMzA5IDIwMy4xOTUgMTI1LjQyNUMyMDMuMTk1IDEyNS41NzggMjAzLjE4NiAxMjUuNzMxIDIwMy4xODEgMTI1Ljg4NFYxMjUuODk2TDIwMy4xNiAxMjYuNDI3QzIwMy4xNTMgMTI2LjU4MiAyMDMuMTQ3IDEyNi43MzggMjAzLjEzOSAxMjYuODkzTDIwMy4xMzQgMTI3LjAwM0wyMDMuMTA3IDEyNy40OTlDMjAzLjA0OCAxMjguNTYyIDIwMi45NjcgMTI5LjYyMyAyMDIuODY2IDEzMC42ODNWMTMwLjY5NkMyMDIuODQ5IDEzMC44NyAyMDIuODMyIDEzMS4wNDQgMjAyLjgxMyAxMzEuMjE4TDIwMi43NjggMTMxLjYyOUwyMDIuNjc5IDEzMi40MzNMMjAyLjYyOCAxMzIuODRMMjAyLjU2NSAxMzMuMzE5QzIwMi41NDIgMTMzLjQ5MyAyMDIuNTE5IDEzMy42NjggMjAyLjQ5MyAxMzMuODQxQzIwMi40NjcgMTM0LjAzNiAyMDIuNDM4IDEzNC4yMyAyMDIuNDA5IDEzNC40MjRMMjAyLjM0IDEzNC44ODNMMjAyLjI1OCAxMzUuNDAzQzIwMi4yMyAxMzUuNTc2IDIwMi4yIDEzNS43NDggMjAyLjE2OCAxMzUuOTJDMjAyLjEzNSAxMzYuMDkzIDIwMi4xMDkgMTM2LjI2NSAyMDIuMDc5IDEzNi40MzdDMjAyLjAxOSAxMzYuNzgxIDIwMS45NTYgMTM3LjEyNSAyMDEuODkgMTM3LjQ2OEMyMDEuNzg5IDEzNy45ODEgMjAxLjY4NiAxMzguNDkzIDIwMS41OCAxMzkuMDA1TDIwMS40NyAxMzkuNTEyQzIwMS40MzQgMTM5LjY4MSAyMDEuMzk1IDEzOS44NTEgMjAxLjM1NyAxNDAuMDJDMTk5LjIyNCAxMzcuOTQ3IDE5Ni4zOTkgMTM2LjgxOCAxOTMuMjg0IDEzNi44MThDMTkwLjQ1NyAxMzYuODE4IDE4Ny41NSAxMzcuNzUzIDE4NC42NDEgMTM5LjU5OEMxODIuNzExIDE0MC44MjQgMTgwLjU3OCAxNDIuOTk2IDE3OC4zODEgMTQ1LjcyNkMxNzYuMzQ2IDE0Mi45MDQgMTczLjQ5OCAxNDEuMDI5IDE3MC4yNDIgMTQwLjUxNkMxNjkuNjIxIDE0MC40MTggMTY4Ljk5MyAxNDAuMzY4IDE2OC4zNjQgMTQwLjM2OEMxNjAuOTI1IDE0MC4zNjggMTU2LjQ1IDE0Ni44MjEgMTU0Ljc1NyAxNTIuNjI2QzE1My45MTcgMTU0LjU4NyAxNDkuODg3IDE2My41MTkgMTQzLjgyNSAxNjkuNTc3QzEzNC41OTYgMTc4Ljc3NSAxMzIuMjY4IDE4OC4yNTQgMTM2Ljc2NiAxOTguNDA3Wk0yMTUuMDA3IDE3Ny45OThMMjE0Ljk3NyAxNzguMDg3QzIxNC45MDEgMTc4LjI4OCAyMTQuODEzIDE3OC40ODQgMjE0LjcxNCAxNzguNjc0QzIxNC42MzkgMTc4LjgxNCAyMTQuNTU4IDE3OC45NSAyMTQuNDcgMTc5LjA4MkMyMTQuMzAzIDE3OS4zMzEgMjE0LjEyIDE3OS41NjkgMjEzLjkyMSAxNzkuNzkzQzIxMy44NzUgMTc5Ljg0NSAyMTMuODMxIDE3OS44OTcgMjEzLjc3OSAxNzkuOTQ4QzIxMy43MDcgMTgwLjAyNSAyMTMuNjM0IDE4MC4xMDEgMjEzLjU1OSAxODAuMTc1QzIxMi4yMTMgMTgxLjUwOSAyMTAuMTYxIDE4Mi42NzkgMjA3Ljg0MSAxODMuNzUyQzIwNy41NzggMTgzLjg3MSAyMDcuMzExIDE4My45OSAyMDcuMDQyIDE4NC4xMUwyMDYuNzc0IDE4NC4yMjlDMjA2LjU5NSAxODQuMzA4IDIwNi40MTYgMTg0LjM4NiAyMDYuMjI4IDE4NC40NjNDMjA2LjA0OSAxODQuNTQxIDIwNS44NjMgMTg0LjYxOSAyMDUuNjc3IDE4NC42OTVMMjA1LjExOSAxODQuOTI1QzIwMy44MTQgMTg1LjQ2MiAyMDIuNDc3IDE4NS45NzQgMjAxLjE3MyAxODYuNDc5TDIwMC42MTUgMTg2LjY5NkwyMDAuMDY0IDE4Ni45MTJDMTk5LjY5NyAxODcuMDU1IDE5OS4zMzUgMTg3LjE5OCAxOTguOTc5IDE4Ny4zNDFMMTk4LjQ0OCAxODcuNTU1TDE5Ny45MjYgMTg3Ljc2OEwxOTcuNjcgMTg3Ljg3NkMxOTcuNDk5IDE4Ny45NDcgMTk3LjMzMiAxODguMDE4IDE5Ny4xNjUgMTg4LjA4OUMxOTMuMzI4IDE4OS43MzYgMTkwLjU2NyAxOTEuNDExIDE5MS4xNDcgMTkzLjQ4OUMxOTEuMTYzIDE5My41NDggMTkxLjE4MSAxOTMuNjA0IDE5MS4yMDEgMTkzLjY1OUMxOTEuMjUzIDE5My44MTMgMTkxLjMyNCAxOTMuOTU4IDE5MS40MTMgMTk0LjA5NUMxOTEuNDY1IDE5NC4xNzYgMTkxLjUyNSAxOTQuMjUzIDE5MS41OTIgMTk0LjMyM0MxOTIuMjc0IDE5NS4wMzIgMTkzLjUxNSAxOTQuOTIgMTk1LjA4IDE5NC4zNTdDMTk1LjMgMTk0LjI3NiAxOTUuNTE5IDE5NC4xOTIgMTk1LjczNiAxOTQuMTA0TDE5NS44NzIgMTk0LjA0OEMxOTYuMjMgMTkzLjg5NiAxOTYuNjA5IDE5My43MjYgMTk2Ljk5NiAxOTMuNTQyQzE5Ny4wOTMgMTkzLjQ5NiAxOTcuMTkxIDE5My40NTIgMTk3LjI4OSAxOTMuNDAxQzE5OS4yMDMgMTkyLjQ2NSAyMDEuMzcyIDE5MS4yMDUgMjAzLjUyNCAxOTAuMDU4QzIwNC4zODUgMTg5LjU5MyAyMDUuMjU4IDE4OS4xNTIgMjA2LjE0MiAxODguNzMzQzIwOC4xOCAxODcuNzc0IDIxMC4wOTYgMTg3LjA5NCAyMTEuNjM2IDE4Ny4wOTRDMjEyLjM1OSAxODcuMDk0IDIxMi45OTcgMTg3LjI0MiAyMTMuNTI5IDE4Ny41ODJMMjEzLjYxOCAxODcuNjQxQzIxMy45NTIgMTg3Ljg3NiAyMTQuMjMyIDE4OC4xNzggMjE0LjQ0MSAxODguNTI4QzIxNC40ODIgMTg4LjU5NSAyMTQuNTIyIDE4OC42NjYgMjE0LjU2MSAxODguNzM5QzIxNS4zMjIgMTkwLjE4NCAyMTQuNjg1IDE5MS42OCAyMTMuMTk0IDE5My4xNDdDMjExLjc2MyAxOTQuNTU2IDIwOS41MzcgMTk1LjkzNyAyMDcuMDA3IDE5Ny4yMTVDMjA2LjgxOSAxOTcuMzEgMjA2LjYzMSAxOTcuNDA1IDIwNi40NCAxOTcuNDk4QzE5OC45MSAyMDEuMTk2IDE4OS4wNDkgMjAzLjk4MSAxODguOTEyIDIwNC4wMTZDMTg2LjI4NCAyMDQuNjk3IDE4Mi41MjYgMjA1LjU5MSAxNzguMjkyIDIwNi4yNkwxNzcuNjY2IDIwNi4zNThMMTc3LjU2MyAyMDYuMzczQzE3Ny4wODkgMjA2LjQ0NSAxNzYuNjE0IDIwNi41MTIgMTc2LjEzOCAyMDYuNTc0QzE3NS42NTUgMjA2LjYzOSAxNzUuMTY3IDIwNi42OTggMTc0LjY3NiAyMDYuNzUzTDE3NC41ODYgMjA2Ljc2M0MxNzIuODA2IDIwNi45NjggMTcxLjAxOSAyMDcuMTA0IDE2OS4yMjggMjA3LjE2OUgxNjkuMjAyQzE2OC41NTQgMjA3LjE5MiAxNjcuOTA3IDIwNy4yMDQgMTY3LjI1OSAyMDcuMjA0SDE2Ni41MTJDMTY1LjUyNCAyMDcuMTkxIDE2NC41MzggMjA3LjE0NiAxNjMuNTUzIDIwNy4wN0MxNjMuNTMgMjA3LjA3IDE2My41MDUgMjA3LjA3IDE2My40ODIgMjA3LjA2NEMxNjMuMTI5IDIwNy4wMzcgMTYyLjc3NyAyMDcuMDA0IDE2Mi40MjUgMjA2Ljk2NUMxNjIuMDYgMjA2LjkyNiAxNjEuNjk2IDIwNi44ODIgMTYxLjMzMyAyMDYuODMzQzE2MS4wOTQgMjA2LjgwMSAxNjAuODU2IDIwNi43NjUgMTYwLjYxOCAyMDYuNzI2QzE2MC4zNzYgMjA2LjY4NyAxNjAuMTM0IDIwNi42NDcgMTU5Ljg5MyAyMDYuNjA1TDE1OS41NjQgMjA2LjU0M0wxNTkuNTM5IDIwNi41MzhDMTU5LjE5MiAyMDYuNDcyIDE1OC44NDcgMjA2LjM5OSAxNTguNTAzIDIwNi4zMTlDMTU4LjMwMyAyMDYuMjc0IDE1OC4xMDQgMjA2LjIzIDE1Ny45MDcgMjA2LjE3NkwxNTcuNzg4IDIwNi4xNDZDMTU3LjY5IDIwNi4xMjIgMTU3LjU5NSAyMDYuMDk2IDE1Ny40OTggMjA2LjA3TDE1Ny40NDUgMjA2LjA1NkwxNTcuMTM3IDIwNS45NjZDMTU3LjAyNSAyMDUuOTM1IDE1Ni45MTMgMjA1LjkwMSAxNTYuODAxIDIwNS44NjhMMTU2Ljc2MiAyMDUuODU3TDE1Ni40NzEgMjA1Ljc2OEMxNTYuMzYxIDIwNS43MzQgMTU2LjI1MSAyMDUuNjk4IDE1Ni4xNDIgMjA1LjY2MkwxNTUuODc0IDIwNS41NzNMMTU1LjY3NyAyMDUuNTA0QzE1NS40ODcgMjA1LjQzNyAxNTUuMjk4IDIwNS4zNjggMTU1LjExMSAyMDUuMjk2TDE1NC45MzMgMjA1LjIyNkwxNTQuNzg2IDIwNS4xNjhDMTU0LjUwMiAyMDUuMDU0IDE1NC4yMiAyMDQuOTM1IDE1My45NDEgMjA0LjgxTDE1My43NTYgMjA0LjcyTDE1My43MjUgMjA0LjcwNkMxNTMuNjU5IDIwNC42NzUgMTUzLjU5NCAyMDQuNjQ0IDE1My41MjggMjA0LjYxN0MxNTMuMzk5IDIwNC41NTUgMTUzLjI3MSAyMDQuNDkxIDE1My4xNDQgMjA0LjQyNkwxNTMuMTA1IDIwNC40MDdMMTUyLjkyMSAyMDQuMzFDMTUyLjU5NCAyMDQuMTM5IDE1Mi4yNzQgMjAzLjk1NyAxNTEuOTYgMjAzLjc2NEwxNTEuNzg4IDIwMy42NThDMTUxLjcwMiAyMDMuNjA1IDE1MS42MTYgMjAzLjU1IDE1MS41MzIgMjAzLjQ5NEwxNTEuMzA4IDIwMy4zNDZMMTUxLjA2NyAyMDMuMThMMTUwLjkyMyAyMDMuMDc3QzE1MC43NzEgMjAyLjk2OSAxNTAuNjIyIDIwMi44NTcgMTUwLjQ3NiAyMDIuNzQyTDE1MC4yNDMgMjAyLjU2M0MxNTAuMTUgMjAyLjQ4OCAxNTAuMDU4IDIwMi40MTIgMTQ5Ljk2NyAyMDIuMzM1QzE0OS44OSAyMDIuMjcyIDE0OS44MTUgMjAyLjIwNiAxNDkuNzQgMjAyLjE0TDE0OS43MzQgMjAyLjEzNUMxNDkuNjUzIDIwMi4wNjQgMTQ5LjU3NCAyMDEuOTkzIDE0OS40OTUgMjAxLjkyQzE0OS40MTcgMjAxLjg0OSAxNDkuMzM5IDIwMS43NzcgMTQ5LjI2MyAyMDEuNzA0TDE0OS4yNTQgMjAxLjY5NUMxNDkuMTc0IDIwMS42MTkgMTQ5LjA5NiAyMDEuNTQyIDE0OS4wMTkgMjAxLjQ2M0MxNDguOTQyIDIwMS4zODUgMTQ4Ljg2MyAyMDEuMzA3IDE0OC43ODggMjAxLjIyN0MxNDguNzEzIDIwMS4xNDggMTQ4LjYzNiAyMDEuMDY3IDE0OC41NjIgMjAwLjk4NEMxNDguNDg4IDIwMC45MDIgMTQ4LjQyIDIwMC44MjcgMTQ4LjM1IDIwMC43NDZMMTQ4LjMyNyAyMDAuNzE5QzE0OC4yNTkgMjAwLjY0MSAxNDguMTkyIDIwMC41NjIgMTQ4LjEyNiAyMDAuNDgxQzE0Ny45ODMgMjAwLjMxIDE0Ny44NDQgMjAwLjEzNSAxNDcuNzEgMTk5Ljk1NkMxNDcuNTc1IDE5OS43NzYgMTQ3LjQ0MyAxOTkuNTkyIDE0Ny4zMTQgMTk5LjQwNUwxNDcuMTkxIDE5OS4yMjFDMTQ3LjAyNyAxOTguOTgxIDE0Ni44NjcgMTk4LjczOSAxNDYuNzEyIDE5OC40OTNDMTQ2LjU5NiAxOTguMzE2IDE0Ni40ODMgMTk4LjEzOCAxNDYuMzczIDE5Ny45NTdDMTQ2LjMwMiAxOTcuODQ0IDE0Ni4yMzQgMTk3LjczIDE0Ni4xNjYgMTk3LjYxOEwxNDYuMTM4IDE5Ny41NzJDMTQ2LjA3MyAxOTcuNDYyIDE0Ni4wMDkgMTk3LjM1NCAxNDUuOTQ3IDE5Ny4yNDVDMTQ1LjkxMSAxOTcuMTg2IDE0NS44NzcgMTk3LjEyNyAxNDUuODQ1IDE5Ny4wNjZDMTQ1LjgxMiAxOTcuMDA0IDE0NS43NzQgMTk2Ljk0MSAxNDUuNzM5IDE5Ni44NzhMMTQ1LjY4MiAxOTYuNzc5TDE0NS42NDcgMTk2LjcxNUMxNDUuNTggMTk2LjU5NSAxNDUuNTE0IDE5Ni40NzQgMTQ1LjQ1IDE5Ni4zNTJDMTQ1LjQyIDE5Ni4yOTggMTQ1LjM5MSAxOTYuMjQ0IDE0NS4zNiAxOTYuMTkyTDE0NS4yNzEgMTk2LjAxOUwxNDUuMTgxIDE5NS44NDhDMTQ0Ljk1NiAxOTUuMzk4IDE0NC43NDMgMTk0Ljk0MiAxNDQuNTQzIDE5NC40OEwxNDQuNDcyIDE5NC4zMTFDMTQ0LjQyNiAxOTQuMTk4IDE0NC4zODMgMTk0LjA4NiAxNDQuMzM3IDE5My45NzVDMTQ0LjMxNSAxOTMuOTIxIDE0NC4yOTMgMTkzLjg2OCAxNDQuMjc0IDE5My44MTRDMTQ0LjE2NyAxOTMuNTM3IDE0NC4wNjcgMTkzLjI1NyAxNDMuOTc1IDE5Mi45NzVDMTQzLjk0MiAxOTIuODc0IDE0My45MSAxOTIuNzc1IDE0My44OCAxOTIuNjc1QzE0My44MDggMTkyLjQ0OCAxNDMuNzQzIDE5Mi4yMTkgMTQzLjY4NSAxOTEuOTg4QzE0My42MTQgMTkxLjcxOSAxNDMuNTUxIDE5MS40NDggMTQzLjQ5OCAxOTEuMTc1QzE0My40ODcgMTkxLjEyIDE0My40NzYgMTkxLjA2NSAxNDMuNDY3IDE5MS4wMTJDMTQzLjQxNSAxOTAuNzQ1IDE0My4zNzMgMTkwLjQ3NiAxNDMuMzQgMTkwLjIwNkMxNDMuMzMyIDE5MC4xNTMgMTQzLjMyNiAxOTAuMSAxNDMuMzIgMTkwLjA0N0wxNDMuMzAzIDE4OS44ODVDMTQzLjI4MSAxODkuNjczIDE0My4yNjQgMTg5LjQ2IDE0My4yNTQgMTg5LjI0N0MxNDMuMjU0IDE4OS4xOTMgMTQzLjI0OSAxODkuMTM5IDE0My4yNDcgMTg5LjA4N0MxNDMuMjQyIDE4OC45ODEgMTQzLjI0IDE4OC44NzUgMTQzLjIzOSAxODguNzY5QzE0My4xODMgMTg0LjQ5NiAxNDUuMzQ1IDE4MC4zODggMTQ5Ljk2OCAxNzUuNzY3QzE1OC4yMDMgMTY3LjU0IDE2Mi45OTcgMTU1LjUwMSAxNjIuOTk3IDE1NS41MDFDMTYyLjk5NyAxNTUuNTAxIDE2My4xMjYgMTU0Ljk5NiAxNjMuMzk0IDE1NC4yNjlDMTYzLjQzMSAxNTQuMTY4IDE2My40NyAxNTQuMDY0IDE2My41MTQgMTUzLjk1NUMxNjMuNjcgMTUzLjU0OCAxNjMuODQ2IDE1My4xNDggMTY0LjA0MSAxNTIuNzU4TDE2NC4wOCAxNTIuNjgzQzE2NC4yNDYgMTUyLjM1MSAxNjQuNDI4IDE1Mi4wMjcgMTY0LjYyNCAxNTEuNzEyQzE2NC42NyAxNTEuNjM5IDE2NC43MTQgMTUxLjU2NyAxNjQuNzY1IDE1MS40OTRDMTY0LjkxMiAxNTEuMjc3IDE2NS4wNjcgMTUxLjA2NSAxNjUuMjMgMTUwLjg2QzE2NS4zMTkgMTUwLjc0OSAxNjUuNDE2IDE1MC42MzkgMTY1LjUxMyAxNTAuNTMyQzE2NS41NTIgMTUwLjQ5IDE2NS41OSAxNTAuNDQ4IDE2NS42MzEgMTUwLjQwOEMxNjYuMTA4IDE0OS45MTUgMTY2LjY1MyAxNDkuNTEzIDE2Ny4yNyAxNDkuMjk5TDE2Ny4zNDggMTQ5LjI3M0MxNjcuNCAxNDkuMjU2IDE2Ny40NTIgMTQ5LjI0IDE2Ny41MDUgMTQ5LjIyNUMxNjcuNTY2IDE0OS4yMDkgMTY3LjYyNyAxNDkuMTk1IDE2Ny42OSAxNDkuMTgyTDE2Ny43MTkgMTQ5LjE3NkMxNjcuODQ5IDE0OS4xNSAxNjcuOTgxIDE0OS4xMzMgMTY4LjExNCAxNDkuMTI0SDE2OC4xMjVDMTY4LjE5NCAxNDkuMTI0IDE2OC4yNjQgMTQ5LjExNyAxNjguMzM1IDE0OS4xMTdDMTY4LjQyNCAxNDkuMTE3IDE2OC41MDcgMTQ5LjExNyAxNjguNTk0IDE0OS4xMjZDMTY4LjY4NCAxNDkuMTM0IDE2OC43NzMgMTQ5LjE0NCAxNjguODYzIDE0OS4xNThDMTY5LjYwNSAxNDkuMjc2IDE3MC4zMTEgMTQ5LjcxOCAxNzAuOTE5IDE1MC40QzE3MS4xNSAxNTAuNjYgMTcxLjM1OCAxNTAuOTQgMTcxLjU0IDE1MS4yMzZDMTcxLjY2IDE1MS40MjggMTcxLjc3MyAxNTEuNjMxIDE3MS44OCAxNTEuODQ1QzE3MS45MjMgMTUxLjkzNCAxNzEuOTY0IDE1Mi4wMTYgMTcyLjAwNCAxNTIuMTA0QzE3Mi4xMDggMTUyLjMzIDE3Mi4yMDIgMTUyLjU2IDE3Mi4yODQgMTUyLjc5NUMxNzIuNDc5IDE1My4zNDUgMTcyLjYyNiAxNTMuOTExIDE3Mi43MjMgMTU0LjQ4N0MxNzIuODA3IDE1NC45OTIgMTcyLjg1NyAxNTUuNTAyIDE3Mi44NzMgMTU2LjAxM0MxNzIuODgxIDE1Ni4yODYgMTcyLjg4MSAxNTYuNTYzIDE3Mi44NzMgMTU2Ljg0MkMxNzIuODE5IDE1OC4xNCAxNzIuNTUzIDE1OS40MjEgMTcyLjA4NiAxNjAuNjM0QzE3Mi4wNDQgMTYwLjc0NSAxNzEuOTk3IDE2MC44NTcgMTcxLjk1MiAxNjAuOTY5QzE3MS44NiAxNjEuMTk1IDE3MS43NTkgMTYxLjQxNyAxNzEuNjUgMTYxLjYzNEMxNzEuNTY5IDE2MS43OTkgMTcxLjQ4NCAxNjEuOTY1IDE3MS4zOTIgMTYyLjEzQzE3MS4zMzIgMTYyLjI0IDE3MS4yNjkgMTYyLjM1IDE3MS4yMDYgMTYyLjQ2QzE3MS4wNDUgMTYyLjczNCAxNzAuODcxIDE2My4wMDYgMTcwLjY4NCAxNjMuMjc3TDE3MC41NzEgMTYzLjQzOUMxNzAuMTI5IDE2NC4wNTUgMTY5LjYzNyAxNjQuNjMzIDE2OS4wOTkgMTY1LjE2N0MxNjguNTY5IDE2NS42OTggMTY4LjAwMSAxNjYuMTg5IDE2Ny40IDE2Ni42MzdDMTY2Ljc5OCAxNjcuMDgzIDE2Ni4yMzMgMTY3LjU3NyAxNjUuNzExIDE2OC4xMTRDMTY0LjIwOCAxNjkuNjkxIDE2My44NTggMTcxLjA4MyAxNjQuMTk2IDE3Mi4xMzhDMTY0LjI1IDE3Mi4zMDQgMTY0LjMyMSAxNzIuNDY1IDE2NC40MDcgMTcyLjYxN0MxNjQuNTA4IDE3Mi43OTEgMTY0LjYyOCAxNzIuOTUxIDE2NC43NjQgMTczLjA5N0wxNjQuODE3IDE3My4xNTJMMTY0Ljg3MSAxNzMuMjA2QzE2NC45MjUgMTczLjI1OCAxNjQuOTgyIDE3My4zMDkgMTY1LjA0MyAxNzMuMzU5TDE2NS4xMDMgMTczLjQwN0MxNjUuMjQ4IDE3My41MTkgMTY1LjQwMiAxNzMuNjE5IDE2NS41NjMgMTczLjcwN0MxNjUuNjEgMTczLjczMiAxNjUuNjUyIDE3My43NTcgMTY1LjcwNSAxNzMuNzgxQzE2NS44NzkgMTczLjg2NiAxNjYuMDU4IDE3My45MzkgMTY2LjI0MiAxNzMuOTk4QzE2Ni4yOTMgMTc0LjAxNSAxNjYuMzQ0IDE3NC4wMyAxNjYuMzk2IDE3NC4wNDZMMTY2LjQ2MSAxNzQuMDYzTDE2Ni41NTEgMTc0LjA4N0wxNjYuNjI4IDE3NC4xMDZMMTY2LjcxMiAxNzQuMTI0TDE2Ni43OTUgMTc0LjE0MUwxNjYuODc0IDE3NC4xNTRDMTY2LjkzMiAxNzQuMTY0IDE2Ni45OTIgMTc0LjE3NCAxNjcuMDUyIDE3NC4xODFMMTY3LjEwOSAxNzQuMTlMMTY3LjIxMyAxNzQuMkwxNjcuMjc3IDE3NC4yMDdMMTY3LjM4MiAxNzQuMjE0SDE2Ny40NDRMMTY3LjU1NCAxNzQuMjJIMTY3LjlMMTY3Ljk5OSAxNzQuMjE0TDE2OC4xMTMgMTc0LjIwN0wxNjguMjUyIDE3NC4xOTRMMTY4LjM4MiAxNzQuMTc5QzE2OC40MTIgMTc0LjE3OSAxNjguNDQyIDE3NC4xNzEgMTY4LjQ3MiAxNzQuMTY1QzE2OC44NzIgMTc0LjEwNyAxNjkuMjY0IDE3NC4wMDEgMTY5LjYzOSAxNzMuODQ5TDE2OS43OTggMTczLjc4MkMxNjkuODg3IDE3My43NDMgMTY5Ljk3NyAxNzMuNzAyIDE3MC4wNTkgMTczLjY1OEMxNzAuMjM1IDE3My41NyAxNzAuNDA2IDE3My40NyAxNzAuNTcgMTczLjM2MUMxNzAuNzk5IDE3My4yMTEgMTcxLjAxNSAxNzMuMDQzIDE3MS4yMTcgMTcyLjg1OEMxNzEuMjY1IDE3Mi44MTUgMTcxLjMxMiAxNzIuNzY5IDE3MS4zNTggMTcyLjcyNUMxNzEuMzgxIDE3Mi43MDMgMTcxLjQwMyAxNzIuNjgyIDE3MS40MjUgMTcyLjY1OEMxNzEuNDY5IDE3Mi42MTMgMTcxLjUxNCAxNzIuNTY5IDE3MS41NTggMTcyLjUyQzE3MS44NzggMTcyLjE2OCAxNzIuMTU1IDE3MS43OCAxNzIuMzgzIDE3MS4zNjNDMTc0LjM0IDE2Ny44MDQgMTc2LjM5MSAxNjQuMjk4IDE3OC41MzQgMTYwLjg0OUwxNzguODI4IDE2MC4zNzhMMTc5LjEyNSAxNTkuOTA3QzE3OS4yNzMgMTU5LjY2OCAxNzkuNDIzIDE1OS40MzMgMTc5LjU3MiAxNTkuMTk5TDE3OS43MjIgMTU4Ljk2NUMxODAuMjIgMTU4LjE4NSAxODAuNzI2IDE1Ny40MSAxODEuMjQxIDE1Ni42NDFMMTgxLjU0NiAxNTYuMTg1QzE4Mi4xNTggMTU1LjI3OCAxODIuNzY4IDE1NC4zOTYgMTgzLjM3MyAxNTMuNTU4TDE4My42NzQgMTUzLjE0M0MxODQuMzMyIDE1Mi4yMzYgMTg1LjAxNyAxNTEuMzQ4IDE4NS43MjggMTUwLjQ4MkwxODYuMDEgMTUwLjE0NEMxODYuMDU3IDE1MC4wODggMTg2LjEgMTUwLjAzMiAxODYuMTUxIDE0OS45NzhDMTg2LjI0NCAxNDkuODY4IDE4Ni4zMzcgMTQ5Ljc2MSAxODYuNDI4IDE0OS42NTdDMTg2LjQ3NCAxNDkuNjA0IDE4Ni41MTcgMTQ5LjU1MiAxODYuNTY2IDE0OS41TDE4Ni44MzQgMTQ5LjE5OEwxODYuOTY4IDE0OS4wNTFDMTg3LjEwMyAxNDguOTA2IDE4Ny4yMzUgMTQ4Ljc2NyAxODcuMzY1IDE0OC42MzRDMTg3LjQ1NSAxNDguNTQ0IDE4Ny41MzggMTQ4LjQ1NSAxODcuNjI0IDE0OC4zNzFDMTg4LjEzMSAxNDcuODUzIDE4OC42OSAxNDcuMzg4IDE4OS4yOTMgMTQ2Ljk4NUwxODkuNDMzIDE0Ni44OTVDMTg5LjU2NyAxNDYuODA1IDE4OS43MDYgMTQ2LjcyMSAxODkuODQ4IDE0Ni42NDVDMTkyLjIxMiAxNDUuMzAzIDE5NC4xNjkgMTQ1LjIwNCAxOTUuMjk2IDE0Ni4zMzFDMTk1Ljk3OCAxNDcuMDEzIDE5Ni4zNTYgMTQ4LjE0NCAxOTYuMzM1IDE0OS43MThDMTk2LjMzNSAxNDkuNzg3IDE5Ni4zMzUgMTQ5Ljg1NyAxOTYuMzMgMTQ5LjkyOVYxNTAuMDA2QzE5Ni4zMyAxNTAuMDc4IDE5Ni4zMjQgMTUwLjE1IDE5Ni4zMTggMTUwLjIyM0MxOTYuMzE4IDE1MC4zMTMgMTk2LjMwOCAxNTAuNDAyIDE5Ni4yOTkgMTUwLjQ5MkMxOTYuMjkgMTUwLjU4MSAxOTYuMjg1IDE1MC42NDkgMTk2LjI3NiAxNTAuNzI5QzE5Ni4yNzYgMTUwLjc1MSAxOTYuMjcyIDE1MC43NzQgMTk2LjI2OCAxNTAuNzk4QzE5Ni4yNjIgMTUwLjg2NyAxOTYuMjUzIDE1MC45MzggMTk2LjI0MyAxNTEuMDA5QzE5Ni4yNDMgMTUxLjAzIDE5Ni4yNDMgMTUxLjA1MiAxOTYuMjM1IDE1MS4wNzRDMTk2LjIyNCAxNTEuMTY5IDE5Ni4yMSAxNTEuMjYzIDE5Ni4xOTQgMTUxLjM1N0MxOTYuMTgzIDE1MS40NDcgMTk2LjE2OCAxNTEuNTMxIDE5Ni4xNTIgMTUxLjYxOUwxOTYuMTI2IDE1MS43NjhDMTk2LjEgMTUxLjkxIDE5Ni4wNjcgMTUyLjA1IDE5Ni4wMjYgMTUyLjE4OEMxOTUuOTQ4IDE1Mi40NDcgMTk1Ljg1NCAxNTIuNyAxOTUuNzQzIDE1Mi45NDZDMTk1LjU4OCAxNTMuMjg0IDE5NS40MTcgMTUzLjYxMyAxOTUuMjI5IDE1My45MzNDMTk1LjEyNSAxNTQuMTExIDE5NS4wMTggMTU0LjI4NiAxOTQuOTA3IDE1NC40NTlDMTk0Ljc5MyAxNTQuNjM4IDE5NC42NzMgMTU0LjgxOSAxOTQuNTQ5IDE1NS4wMDJDMTk0LjIzMyAxNTUuNDU0IDE5My45MDUgMTU1Ljg5NyAxOTMuNTY0IDE1Ni4zM0wxOTMuNDA4IDE1Ni41MjdDMTkyLjg1MiAxNTcuMjIgMTkyLjI3OCAxNTcuODk5IDE5MS42ODYgMTU4LjU2MkwxOTEuNDk5IDE1OC43NzJDMTkxLjI0NyAxNTkuMDUzIDE5MC45OTEgMTU5LjMzNiAxOTAuNzI5IDE1OS42MkwxOTAuNTMyIDE1OS44MzRDMTkwLjQwMSAxNTkuOTc3IDE5MC4yNjQgMTYwLjEyIDE5MC4xMzIgMTYwLjI2NEMxOTAuMDAxIDE2MC40MDcgMTg5Ljg2NCAxNjAuNTUyIDE4OS43MjYgMTYwLjY5N0wxODkuMzE1IDE2MS4xM0wxODguODk4IDE2MS41NjZMMTg4LjQ3OCAxNjIuMDAyQzE4OC4xOTYgMTYyLjI5NCAxODcuOTEzIDE2Mi41ODYgMTg3LjYyOCAxNjIuODc4QzE4My41NzMgMTY3LjAzNyAxNzkuMzAxIDE3MS4xODIgMTc3Ljg1NSAxNzMuNzY2QzE3Ny43NTggMTczLjkzNCAxNzcuNjcxIDE3NC4xMDggMTc3LjU5MyAxNzQuMjg1QzE3Ny4zODcgMTc0Ljc1NSAxNzcuMzAxIDE3NS4xNTcgMTc3LjM2IDE3NS40ODJDMTc3LjM3OSAxNzUuNTg5IDE3Ny40MTYgMTc1LjY5MSAxNzcuNDcxIDE3NS43ODVDMTc3LjU1MiAxNzUuOTI2IDE3Ny42NTEgMTc2LjA1NiAxNzcuNzY2IDE3Ni4xNzJDMTc3LjgxOSAxNzYuMjI0IDE3Ny44NzUgMTc2LjI3MiAxNzcuOTM0IDE3Ni4zMTZDMTc4LjIzMiAxNzYuNTI4IDE3OC41OTEgMTc2LjYzNyAxNzguOTU3IDE3Ni42MjdIMTc5LjA3MUwxNzkuMTg4IDE3Ni42MThMMTc5LjMwNSAxNzYuNjA1TDE3OS40MDIgMTc2LjU5MUMxNzkuNDE1IDE3Ni41ODkgMTc5LjQyOSAxNzYuNTg3IDE3OS40NDIgMTc2LjU4M0wxNzkuNTMxIDE3Ni41NjZMMTc5LjU1NCAxNzYuNTYxTDE3OS42NTMgMTc2LjU0TDE3OS42ODggMTc2LjUzMUMxNzkuNzIzIDE3Ni41MjIgMTc5Ljc1NyAxNzYuNTEzIDE3OS43OTIgMTc2LjUwM0MxNzkuODI3IDE3Ni40OTMgMTc5Ljg3NSAxNzYuNDggMTc5LjkxNyAxNzYuNDY2QzE4MC4wOTMgMTc2LjQxMyAxODAuMjY1IDE3Ni4zNSAxODAuNDM0IDE3Ni4yNzhDMTgwLjUyMyAxNzYuMjQyIDE4MC42MSAxNzYuMjAzIDE4MC42OTYgMTc2LjE2MUMxODAuNzQxIDE3Ni4xNDEgMTgwLjc4NiAxNzYuMTIgMTgwLjgyOCAxNzYuMDk4TDE4MC45NjIgMTc2LjAzMkMxODEuMjgyIDE3NS44NjYgMTgxLjU5NCAxNzUuNjg1IDE4MS44OTggMTc1LjQ5MUwxODIuMDMxIDE3NS40MDFDMTgyLjA3NiAxNzUuMzczIDE4Mi4xMjEgMTc1LjM0NCAxODIuMTY0IDE3NS4zMTJMMTgyLjI5NyAxNzUuMjIzTDE4Mi4zNjggMTc1LjE3NEwxODIuNTYgMTc1LjAzOUMxODIuNzM5IDE3NC45MTYgMTgyLjkwNiAxNzQuNzg5IDE4My4wNzUgMTc0LjY2TDE4My4wOSAxNzQuNjQ4TDE4My4zNTkgMTc0LjQ0QzE4My43MjYgMTc0LjE1IDE4NC4wNzQgMTczLjg1OCAxODQuMzkgMTczLjU4M0wxODQuNiAxNzMuMzk5TDE4NC42MTkgMTczLjM4MUwxODQuNzI5IDE3My4yODRDMTg0Ljk4NyAxNzMuMDUyIDE4NS4yMTcgMTcyLjgzNiAxODUuNDA4IDE3Mi42NThMMTg1LjQ4NyAxNzIuNTgxQzE4NS41NTYgMTcyLjUxNiAxODUuNjE5IDE3Mi40NTUgMTg1LjY3NiAxNzIuNDAzTDE4NS43ODggMTcyLjI5MkwxODUuODI4IDE3Mi4yNTNMMTg1LjgzOSAxNzIuMjQyTDE4NS45NTYgMTcyLjEyNUwxODYuMDMgMTcyLjA0OEwxODYuMDM5IDE3Mi4wNDFMMTg2LjA3NCAxNzIuMDA5TDE4Ni4xMTggMTcxLjk2OUwxODYuMTMyIDE3MS45NTZMMTg2LjE2OSAxNzEuOTIyTDE4Ni4zNzMgMTcxLjc0M0wxODYuNDg3IDE3MS42NDFDMTg2LjU0OCAxNzEuNTg4IDE4Ni42MDcgMTcxLjUzNCAxODYuNjY2IDE3MS40NzlMMTg2LjgwMiAxNzEuMzU4QzE4Ni44MjcgMTcxLjMzOCAxODYuODUxIDE3MS4zMTYgMTg2Ljg3NiAxNzEuMjk0TDE4Ny4wMTkgMTcxLjE2OUwxODcuMjI5IDE3MC45ODRMMTg3LjM0MSAxNzAuODg3QzE4Ny43NzYgMTcwLjUwOSAxODguMzA1IDE3MC4wNTIgMTg4LjkxMyAxNjkuNTM3TDE4OS4xNjIgMTY5LjMyNkwxODkuNTczIDE2OC45ODFMMTg5Ljk5NCAxNjguNjNDMTkwLjU0NCAxNjguMTczIDE5MS4xMzYgMTY3LjY4OCAxOTEuNzYyIDE2Ny4xODVMMTkyLjE3MyAxNjYuODU1QzE5Mi41MjMgMTY2LjU3NiAxOTIuODgyIDE2Ni4yOTIgMTkzLjI0NiAxNjYuMDA2QzE5My4zOTMgMTY1Ljg5MSAxOTMuNTQyIDE2NS43NzYgMTkzLjY5NCAxNjUuNjYyQzE5NC4wNjYgMTY1LjM3MyAxOTQuNDQgMTY1LjA4NiAxOTQuODE3IDE2NC44MDNDMTk1LjY3NSAxNjQuMTU1IDE5Ni41NiAxNjMuNTA2IDE5Ny40NTYgMTYyLjg3NEwxOTcuODQgMTYyLjYwNkMxOTguMTA5IDE2Mi40MjEgMTk4LjM3NyAxNjIuMjM1IDE5OC42NDUgMTYyLjA1NEwxOTguODg4IDE2MS44OUMxOTkuMzY3IDE2MS41NjUgMTk5Ljg1MyAxNjEuMjQ4IDIwMC4zNDMgMTYwLjkzOUwyMDAuNTg2IDE2MC43ODZMMjAwLjgyNyAxNjAuNjM2QzIwMS4wNjkgMTYwLjQ4NiAyMDEuMzA5IDE2MC4zMzkgMjAxLjU0OCAxNjAuMTk2TDIwMS43ODcgMTYwLjA1M0wyMDIuMjY1IDE1OS43NzVMMjAyLjczNCAxNTkuNTA2TDIwMi44MjkgMTU5LjQ1NEwyMDMuMiAxNTkuMjVDMjAzLjM1NSAxNTkuMTY2IDIwMy41MDkgMTU5LjA4NSAyMDMuNjYzIDE1OS4wMDZMMjAzLjg5MiAxNTguODg4TDIwNC4xMTUgMTU4Ljc3NkMyMDQuMTkzIDE1OC43MzkgMjA0LjI3IDE1OC43IDIwNC4zNDYgMTU4LjY2M0MyMDQuODQ4IDE1OC40MTUgMjA1LjM2IDE1OC4xODcgMjA1Ljg4IDE1Ny45NzlDMjA2LjAyMSAxNTcuOTE5IDIwNi4xNjEgMTU3Ljg2NSAyMDYuMyAxNTcuODE4TDIwNi43MSAxNTcuNjc0QzIwNi44MzMgMTU3LjYzMyAyMDYuOTUzIDE1Ny41OTQgMjA3LjA2OCAxNTcuNTU5TDIwNy4xMDggMTU3LjU0N0MyMDcuMTcgMTU3LjUyNyAyMDcuMjMyIDE1Ny41MDkgMjA3LjI5MyAxNTcuNDkzTDIwNy4zMTEgMTU3LjQ4OEMyMDcuNDM5IDE1Ny40NTEgMjA3LjU2NiAxNTcuNDE5IDIwNy42OTEgMTU3LjM4OUgyMDcuN0MyMDguMDU0IDE1Ny4zMDQgMjA4LjQxNCAxNTcuMjQzIDIwOC43NzcgMTU3LjIwNkMyMDguOTQ0IDE1Ny4xODkgMjA5LjExMSAxNTcuMTggMjA5LjI3OSAxNTcuMTgxSDIwOS4zNjNDMjA5LjQ3NSAxNTcuMTgxIDIwOS41ODMgMTU3LjE4OCAyMDkuNjkgMTU3LjE5OUMyMDkuNzM5IDE1Ny4xOTkgMjA5Ljc4OCAxNTcuMjA5IDIwOS44MzYgMTU3LjIxNUgyMDkuODU2QzIwOS45MDQgMTU3LjIyMSAyMDkuOTUyIDE1Ny4yMjggMjEwIDE1Ny4yMzlDMjEwLjA0NyAxNTcuMjQ4IDIxMC4wOTUgMTU3LjI1NiAyMTAuMTQxIDE1Ny4yNjdIMjEwLjE1NkMyMTAuMjAzIDE1Ny4yNzcgMjEwLjI0NSAxNTcuMjg5IDIxMC4yOTQgMTU3LjMwM0MyMTAuNTQ4IDE1Ny4zNzQgMjEwLjc5IDE1Ny40ODQgMjExLjAxMiAxNTcuNjI4QzIxMS4xMjEgMTU3LjY5OSAyMTEuMjIzIDE1Ny43NzkgMjExLjMxNyAxNTcuODY4TDIxMS4zNDQgMTU3Ljg5NEMyMTEuMzYyIDE1Ny45MSAyMTEuMzc5IDE1Ny45MjcgMjExLjM5NSAxNTcuOTQ0TDIxMS40NDQgMTU3Ljk5N0MyMTEuODQ2IDE1OC40MTggMjEyLjE3OCAxNTguOTAxIDIxMi40MjggMTU5LjQyN0wyMTIuNDY2IDE1OS41MTdDMjEyLjU1MSAxNTkuNzE3IDIxMi42MTggMTU5LjkyNCAyMTIuNjY2IDE2MC4xMzVDMjEyLjgwOCAxNjAuNzgxIDIxMi43NTMgMTYxLjQ1NSAyMTIuNTA4IDE2Mi4wN0MyMTIuNDE1IDE2Mi4zMTggMjEyLjMwMiAxNjIuNTU3IDIxMi4xNjkgMTYyLjc4NUMyMTEuODU4IDE2My4zMDkgMjExLjQ4OSAxNjMuNzk2IDIxMS4wNyAxNjQuMjM3TDIxMC45ODEgMTY0LjMzMkMyMTAuODQ4IDE2NC40NzIgMjEwLjcxIDE2NC42MTIgMjEwLjU2NSAxNjQuNzUyQzIxMC41MDEgMTY0LjgxNSAyMTAuNDM0IDE2NC44NzcgMjEwLjM2NyAxNjQuOTRMMjEwLjE2MiAxNjUuMTI5TDIxMC4wNTUgMTY1LjIyNEMyMDkuNzk3IDE2NS40NTQgMjA5LjUzMiAxNjUuNjc3IDIwOS4yNjMgMTY1Ljg5M0MyMDkuMSAxNjYuMDI1IDIwOC45MzYgMTY2LjE1NCAyMDguNzcgMTY2LjI4MUMyMDguMTg0IDE2Ni43MjkgMjA3LjU4NyAxNjcuMTYxIDIwNi45NzkgMTY3LjU3OEMyMDYuNjEyIDE2Ny44MyAyMDYuMjQyIDE2OC4wNzcgMjA1Ljg2OSAxNjguMzIxQzIwNC45NSAxNjguOTI0IDIwNC4wMjEgMTY5LjUxMiAyMDMuMDgzIDE3MC4wODRDMjAxLjExNSAxNzEuMjk0IDE5OC45MzQgMTcyLjU4OCAxOTYuNjA5IDE3My45OTVMMTk2LjAwNyAxNzQuMzZDMTk1LjM0OCAxNzQuNzYyIDE5NC43MjYgMTc1LjE0NiAxOTQuMTQgMTc1LjUxMkwxOTMuODQ1IDE3NS42OTdMMTkzLjI4NyAxNzYuMDU1QzE5Mi45MTcgMTc2LjI5MiAxOTIuNTQ4IDE3Ni41MzEgMTkyLjE3OSAxNzYuNzdMMTkxLjg4MiAxNzYuOTY2QzE5MS43MzcgMTc3LjA2IDE5MS41OTMgMTc3LjE1NiAxOTEuNDQ5IDE3Ny4yNTJMMTkxLjMwOCAxNzcuMzQyTDE5MC44NzYgMTc3LjYzM0wxOTAuNjQ3IDE3Ny43OUwxOTAuMzc5IDE3Ny45NzZMMTkwLjEzIDE3OC4xNDlDMTg5LjcxMyAxNzguNDQ0IDE4OS4zMjUgMTc4LjcyNSAxODguOTY4IDE3OC45OTJMMTg4LjgzNCAxNzkuMDk0QzE4OC42MjQgMTc5LjI1MyAxODguNDE2IDE3OS40MTUgMTg4LjIxMSAxNzkuNThDMTg3LjkwMiAxNzkuODI5IDE4Ny42MiAxODAuMDY3IDE4Ny4zNjcgMTgwLjI5NkwxODcuMjQzIDE4MC40MDlDMTg3LjE3MiAxODAuNDc0IDE4Ny4xMDIgMTgwLjUzOSAxODcuMDM1IDE4MC42MDNDMTg2Ljk4OSAxODAuNjQ4IDE4Ni45NDYgMTgwLjY5MyAxODYuODk4IDE4MC43MzZMMTg2LjgzNCAxODAuOEMxODYuNjkxIDE4MC45NDQgMTg2LjU1MSAxODEuMDkxIDE4Ni40MTYgMTgxLjI0MkwxODYuMzUgMTgxLjMxOEMxODYuMjAzIDE4MS40ODggMTg2LjA3NSAxODEuNjUxIDE4NS45NjMgMTgxLjgxTDE4NS45MTMgMTgxLjg4MUMxODUuODI1IDE4Mi4wMDkgMTg1Ljc0NCAxODIuMTQxIDE4NS42NzEgMTgyLjI3N0MxODUuNjUyIDE4Mi4zMTEgMTg1LjYzNSAxODIuMzQ1IDE4NS42MTggMTgyLjM3OUwxODUuNTY5IDE4Mi40ODFMMTg1LjUzNiAxODIuNTU1TDE4NS41MTUgMTgyLjYwNUwxODUuNDk4IDE4Mi42NUwxODUuNDc1IDE4Mi43MTFDMTg1LjQxMyAxODIuODggMTg1LjM3IDE4My4wNTYgMTg1LjM0NSAxODMuMjM0TDE4NS4zMzcgMTgzLjI5NkwxODUuMzMxIDE4My4zNTRWMTgzLjY2OUMxODUuMzMxIDE4My42OTUgMTg1LjMzMSAxODMuNzIxIDE4NS4zMzggMTgzLjc0OUwxODUuMzQzIDE4My43OTdDMTg1LjM0MyAxODMuODIzIDE4NS4zNDkgMTgzLjg0OCAxODUuMzUzIDE4My44NzZDMTg1LjM1NyAxODMuOTAyIDE4NS4zNjQgMTgzLjk0OSAxODUuMzcyIDE4My45ODZWMTgzLjk5MUMxODUuMzc5IDE4NC4wMjYgMTg1LjM4NiAxODQuMDYgMTg1LjM5NSAxODQuMDk1QzE4NS40MDQgMTg0LjEzIDE4NS40MTMgMTg0LjE3IDE4NS40MjQgMTg0LjIwNkMxODUuNDQzIDE4NC4yNzcgMTg1LjQ2NyAxODQuMzQ3IDE4NS40OTIgMTg0LjQxN0MxODUuNTA4IDE4NC40NTkgMTg1LjUyMyAxODQuNSAxODUuNTQgMTg0LjU0MUMxODUuNTQgMTg0LjU0OSAxODUuNTQ2IDE4NC41NTggMTg1LjU1IDE4NC41NjZMMTg1LjU4NiAxODQuNjQ3TDE4NS42MzYgMTg0Ljc1OEMxODUuNjkgMTg0Ljg3MyAxODUuNzQ5IDE4NC45ODUgMTg1LjgxMyAxODUuMDk0TDE4NS44NzkgMTg1LjIwOEwxODUuOTQ3IDE4NS4zMjJDMTg1Ljk1OSAxODUuMzQxIDE4NS45NzMgMTg1LjM1OSAxODUuOTg4IDE4NS4zNzZMMTg2LjAxIDE4NS4zOTlMMTg2LjAzNSAxODUuNDIyTDE4Ni4wNjEgMTg1LjQ0MkMxODYuMDk5IDE4NS40NjkgMTg2LjE0IDE4NS40OSAxODYuMTgzIDE4NS41MDVDMTg2LjIwNiAxODUuNTEzIDE4Ni4yMyAxODUuNTE5IDE4Ni4yNTQgMTg1LjUyNUMxODYuODMxIDE4NS42NTUgMTg4LjAxNyAxODUuMTc4IDE4OS41OTMgMTg0LjM0NkMxODkuNjgyIDE4NC4yOTggMTg5Ljc4IDE4NC4yNDggMTg5Ljg3NSAxODQuMTk2TDE5MC4zNTUgMTgzLjkzNEwxOTAuNTg5IDE4My44MDRDMTkwLjc1NiAxODMuNzE1IDE5MC45MjYgMTgzLjYxNCAxOTEuMSAxODMuNTE1TDE5MS40MTcgMTgzLjMzNkMxOTMuNSAxODIuMTM3IDE5NS45ODggMTgwLjU5NyAxOTguNTYgMTc5LjA5M0MxOTguODAxIDE3OC45NTIgMTk5LjA0MyAxNzguODExIDE5OS4yODUgMTc4LjY3MkwxOTkuNzcxIDE3OC4zNjFDMjAwLjMzNSAxNzguMDM4IDIwMC45MDIgMTc3LjcxOSAyMDEuNDcxIDE3Ny40MDRDMjAyLjE4OCAxNzcuMDEgMjAyLjkxIDE3Ni42MjYgMjAzLjYzOSAxNzYuMjU0TDIwNC4xMTUgMTc2LjAxM0MyMDQuNDMxIDE3NS44NTcgMjA0Ljc0NCAxNzUuNzA1IDIwNS4wNTMgMTc1LjU1N0MyMDUuNjUxIDE3NS4yNzMgMjA2LjI1NiAxNzUuMDAzIDIwNi44NjggMTc0Ljc0OEwyMDcuMjAzIDE3NC42MTJMMjA3LjI0MyAxNzQuNTk2QzIwOS4wMTggMTczLjg5MyAyMTAuNjI3IDE3My40NTkgMjExLjkyOSAxNzMuNDU5QzIxMi4yMSAxNzMuNDU2IDIxMi40OTIgMTczLjQ4IDIxMi43NjkgMTczLjUyOEgyMTIuNzc4QzIxMi44NjcgMTczLjU0NCAyMTIuOTQ4IDE3My41NjIgMjEzLjAzMSAxNzMuNTgySDIxMy4wNDZDMjEzLjI1OSAxNzMuNjM2IDIxMy40NjYgMTczLjcxMyAyMTMuNjYyIDE3My44MTJDMjEzLjkzNyAxNzMuOTU0IDIxNC4xODQgMTc0LjE0MyAyMTQuMzkzIDE3NC4zNzFDMjE0LjQ4OSAxNzQuNDc3IDIxNC41NzQgMTc0LjU5MiAyMTQuNjQ5IDE3NC43MTRDMjE0Ljc4OSAxNzQuOTI5IDIxNC44OTkgMTc1LjE2MiAyMTQuOTc4IDE3NS40MDZDMjE1LjAxIDE3NS41MDEgMjE1LjAzOCAxNzUuNTk0IDIxNS4wNjcgMTc1LjY5M0MyMTUuMjc4IDE3Ni40NSAyMTUuMjU3IDE3Ny4yNTMgMjE1LjAwNyAxNzcuOTk4WiIvPiYjeGE7PHBhdGggZmlsbD0iI0ZGRDIxRSIgZD0iTTIwMy4yMSAxMjMuNjg1VjEyMy4xOTRDMjAzLjIxIDgxLjM0IDE2OS4yOTIgNDcuNDExIDEyNy40MzUgNDcuNDExQzg1LjU3OTEgNDcuNDExIDUxLjY0OCA4MS4zNDIgNTEuNjQ4IDEyMy4xOTRWMTIzLjM1OEM1MS42NDYgMTIzLjQ2NyA1MS42NDUgMTIzLjU3NiA1MS42NDggMTIzLjY4NUM1MS42NTI5IDEyMy44NDggNTEuNjU0NiAxMjQuMDExIDUxLjY1MyAxMjQuMTc0TDUxLjY1ODEgMTI0LjUzNEw1MS42NjEgMTI0LjY2M0M1MS42NjEgMTI0LjcyMyA1MS42NjMxIDEyNC43ODIgNTEuNjY1MSAxMjQuODQyQzUxLjY2ODEgMTI0LjkzNyA1MS42NyAxMjUuMDMzIDUxLjY3IDEyNS4xMjhMNTEuNjgxIDEyNS41MTdMNTEuNjk3IDEyNS45NzRMNTEuNzAyIDEyNi4xMjRMNTEuNzIyIDEyNi41OTdWMTI2LjYyQzUxLjczIDEyNi44MDUgNTEuNzQwMSAxMjYuOTg5IDUxLjc0OTEgMTI3LjE3M0w1MS43NSAxMjcuMTg3QzUxLjc2IDEyNy4zNzUgNTEuNzcwMSAxMjcuNTY0IDUxLjc4MjEgMTI3Ljc1M0M1MS43OTIxIDEyNy45MjcgNTEuODAyIDEyOC4xMDEgNTEuODE1IDEyOC4yNzVMNTEuODE3MSAxMjguMzA2QzUxLjgyNTggMTI4LjQ1NSA1MS44MzU4IDEyOC42MDUgNTEuODQ3IDEyOC43NTRMNTEuODUgMTI4Ljc5NEw1MS44ODMgMTI5LjIyNkw1MS44ODYxIDEyOS4yNTRDNTEuODkyMSAxMjkuMzM4IDUxLjg5OCAxMjkuNDIyIDUxLjkwNiAxMjkuNTAzQzUxLjk2NTggMTMwLjIyNCA1Mi4wMzU1IDEzMC45NDUgNTIuMTE1MSAxMzEuNjY0TDUyLjEyIDEzMS43MDlMNTIuMTgxIDEzMi4yMzhMNTIuMjQ5MSAxMzIuNzkzTDUyLjI5OSAxMzMuMTdMNTIuMzIyIDEzMy4zNDdDNTIuMzc1MyAxMzMuNzU1IDUyLjQzMyAxMzQuMTYyIDUyLjQ5NSAxMzQuNTY4TDUyLjQ5OTEgMTM0LjU5NUw1Mi41NTggMTM0Ljk3OUM1Mi44NDM1IDEzNi44MDggNTMuMTk3MSAxMzguNjI2IDUzLjYxOCAxNDAuNDI5TDUzLjYyMzEgMTQwLjQ1MUw1My42NTUgMTQwLjU4Nkw1My43NDYgMTQwLjk3MUw1My44MDIgMTQwLjkwNEM1Ni4wMDIgMTM4LjI3NCA1OS4xNTggMTM2LjgyNCA2Mi42ODkgMTM2LjgyNEM2NS41MTkgMTM2LjgyNCA2OC40MjIxIDEzNy43NiA3MS4zMzIxIDEzOS42MDVDNzMuMjYyMSAxNDAuODMxIDc1LjM5NjEgMTQzLjAwMiA3Ny41OTIxIDE0NS43MzNDNzkuNjI0MSAxNDIuOTExIDgyLjQ3MjEgMTQxLjAzNSA4NS43MzAxIDE0MC41MjNDODYuMzUxMyAxNDAuNDI1IDg2Ljk3OTIgMTQwLjM3NiA4Ny42MDgxIDE0MC4zNzVDOTUuMDQ0MSAxNDAuMzc1IDk5LjUyMyAxNDYuODI4IDEwMS4yMTUgMTUyLjYzM0MxMDIuMDUxIDE1NC41OTQgMTA2LjA4IDE2My41MjYgMTEyLjE1NiAxNjkuNTY4QzEyMS4zOTIgMTc4Ljc5NSAxMjMuNzAzIDE4OC4zMTYgMTE5LjEzMiAxOTguNTExSDExOS4xNDhDMTE5LjQ1OSAxOTguNTQ2IDExOS43NzIgMTk4LjU3OCAxMjAuMDg3IDE5OC42MDdDMTIwLjI3NCAxOTguNjI1IDEyMC40NiAxOTguNjQzIDEyMC42NDggMTk4LjY1OUwxMjAuNzE0IDE5OC42NjVMMTIxLjEyNyAxOTguN0wxMjEuNTA3IDE5OC43M0MxMjEuODY5IDE5OC43NTggMTIyLjIzMiAxOTguNzg0IDEyMi41OTYgMTk4LjgwN0wxMjIuODg1IDE5OC44MjRMMTIzLjExNCAxOTguODM4TDEyMy4yNTYgMTk4Ljg0NkwxMjMuNzAzIDE5OC44NjlMMTIzLjgyNSAxOTguODc0TDEyNC4yOTQgMTk4Ljg5NUwxMjQuODE2IDE5OC45MTVMMTI1LjIzNSAxOTguOTI3TDEyNS4zMDUgMTk4LjkyOUMxMjUuMzk0IDE5OC45MzMgMTI1LjQ4MyAxOTguOTM2IDEyNS41NzIgMTk4LjkzNkwxMjUuNjY4IDE5OC45MzlDMTI2LjI1OCAxOTguOTUzIDEyNi44NDcgMTk4Ljk2IDEyNy40MzcgMTk4Ljk1OUgxMjguMDYzTDEyOC41MSAxOTguOTU0QzEyOC42MiAxOTguOTQ5IDEyOC43MjkgMTk4Ljk0OSAxMjguODQgMTk4Ljk0OUgxMjkuMDE0TDEyOS4xNjUgMTk4Ljk0NUMxMjkuMjI0IDE5OC45NDMgMTI5LjI4MyAxOTguOTQxIDEyOS4zNDMgMTk4Ljk0MUgxMjkuNTIyTDEyOS44NzMgMTk4LjkzMkwxMzAuNDAxIDE5OC45MTRMMTMwLjk4MiAxOTguODg4QzEzMS4xNSAxOTguODgyIDEzMS4zMTYgMTk4Ljg3MyAxMzEuNDgyIDE5OC44NjVMMTMxLjY2MSAxOTguODU0TDEzMS45MjcgMTk4Ljg0TDEzMi4wODMgMTk4LjgzMUwxMzIuMjAxIDE5OC44MjNMMTMyLjczOCAxOTguNzg4TDEzMy4yNzQgMTk4Ljc0OUwxMzMuNzYxIDE5OC43MUwxMzQuMTAzIDE5OC42ODFMMTM0LjQ3OSAxOTguNjQ3QzEzNS4xMDcgMTk4LjU5MSAxMzUuNzMzIDE5OC41MjUgMTM2LjM1OSAxOTguNDVMMTM2Ljc4NiAxOTguMzk5QzEzMi4yODcgMTg4LjI0NyAxMzQuNjE2IDE3OC43NjcgMTQzLjgxMyAxNjkuNTc3QzE0OS44NzYgMTYzLjUxOSAxNTMuOTA1IDE1NC41ODcgMTU0Ljc0NSAxNTIuNjI1QzE1Ni40MzggMTQ2LjgyMSAxNjAuOTE0IDE0MC4zNjggMTY4LjM1MiAxNDAuMzY4QzE2OC45ODEgMTQwLjM2OCAxNjkuNjEgMTQwLjQxOCAxNzAuMjMxIDE0MC41MTZDMTczLjQ4NiAxNDEuMDI4IDE3Ni4zMzQgMTQyLjkwNCAxNzguMzY5IDE0NS43MjZDMTgwLjU2NiAxNDIuOTk2IDE4Mi42OTkgMTQwLjgyMyAxODQuNjMgMTM5LjU5N0MxODcuNTM5IDEzNy43NTMgMTkwLjQ0NSAxMzYuODE3IDE5My4yNzIgMTM2LjgxN0MxOTYuMzg4IDEzNi44MTcgMTk5LjIxMiAxMzcuOTQ3IDIwMS4zNDUgMTQwLjAyQzIwMS4zODQgMTM5Ljg1MSAyMDEuNDIyIDEzOS42ODIgMjAxLjQ1OSAxMzkuNTEyTDIwMS41NjggMTM5LjAwNkMyMDEuNjA3IDEzOC44MjEgMjAxLjY0NiAxMzguNjM2IDIwMS42ODMgMTM4LjQ1MUMyMDEuNzQ5IDEzOC4xMjQgMjAxLjgxNSAxMzcuNzk3IDIwMS44NzggMTM3LjQ2N0MyMDEuOTQ0IDEzNy4xMjUgMjAyLjAwNyAxMzYuNzgxIDIwMi4wNjcgMTM2LjQzN0wyMDIuMDk4IDEzNi4yNTFDMjAyLjExNyAxMzYuMTQxIDIwMi4xMzUgMTM2LjAzMSAyMDIuMTU2IDEzNS45MkMyMDIuMTkgMTM1Ljc0OCAyMDIuMjE4IDEzNS41NzYgMjAyLjI0NiAxMzUuNDAyTDIwMi4yNTcgMTM1LjMzNkwyMDIuMzI4IDEzNC44ODNMMjAyLjM5OCAxMzQuNDI0VjEzNC40MkMyMDIuNDQ5IDEzNC4wODEgMjAyLjQ5NyAxMzMuNzQyIDIwMi41NDIgMTMzLjQwM0wyMDIuNTUzIDEzMy4zMTlMMjAyLjYxNiAxMzIuODQxTDIwMi42NjcgMTMyLjQzM0wyMDIuNzU3IDEzMS42MjlMMjAyLjc5MiAxMzEuMzA2TDIwMi44MDEgMTMxLjIxOEMyMDIuODIgMTMxLjA0NCAyMDIuODM4IDEzMC44NyAyMDIuODU0IDEzMC42OTZWMTMwLjY4MkMyMDIuODY3IDEzMC41NDQgMjAyLjg4MSAxMzAuNDA1IDIwMi44OTMgMTMwLjI2NkMyMDIuOTY0IDEyOS40NzggMjAzLjAyNCAxMjguNjg2IDIwMy4wNzIgMTI3Ljg5MUMyMDMuMDgxIDEyNy43NjEgMjAzLjA4OCAxMjcuNjMgMjAzLjA5NiAxMjcuNDk5VjEyNy40OTNMMjAzLjEyMiAxMjcuMDAyTDIwMy4xMjggMTI2Ljg5MkMyMDMuMTQ0IDEyNi41NiAyMDMuMTU4IDEyNi4yMjggMjAzLjE2OSAxMjUuODk2VjEyNS44ODRMMjAzLjE3NCAxMjUuNzU0QzIwMy4xNzkgMTI1LjY0NSAyMDMuMTgzIDEyNS41MzUgMjAzLjE4MyAxMjUuNDI1TDIwMy4xODUgMTI1LjM4MUMyMDMuMTg5IDEyNS4yNzggMjAzLjE5MyAxMjUuMTcyIDIwMy4xOTMgMTI1LjA2N0wyMDMuMTk2IDEyNC45NzdDMjAzLjE5OSAxMjQuODcyIDIwMy4yMDIgMTI0Ljc2OCAyMDMuMjAyIDEyNC42NjNMMjAzLjIwNCAxMjQuNTc0QzIwMy4yMDcgMTI0LjQ0MSAyMDMuMjEgMTI0LjMwNyAyMDMuMjEgMTI0LjE3NFYxMjMuNjg1Wk0xMDguNjM4IDE5OS4zOTFDMTE0LjY0IDE5MC41OSAxMTQuMjE0IDE4My45ODQgMTA1Ljk4IDE3NS43NTRDOTcuNzQ0MSAxNjcuNTIzIDkyLjk1MSAxNTUuNDg3IDkyLjk1MSAxNTUuNDg3QzkyLjk1MSAxNTUuNDg3IDkxLjE2MjEgMTQ4LjQ5NiA4Ny4wODIxIDE0OS4xMzhDODMuMDAyMSAxNDkuNzggODAuMDA5MSAxNjAuMjI3IDg4LjU1MjEgMTY2LjYyMkM5Ny4wOTQxIDE3My4wMTcgODYuODUyMSAxNzcuMzUzIDgzLjU2NDEgMTcxLjM1MkM4MC4yNzYxIDE2NS4zNSA3MS4yOTkgMTQ5LjkyMyA2Ni42NDUgMTQ2Ljk3MkM2MS45OTEgMTQ0LjAyMSA1OC43MTggMTQ1LjY3NSA1OS44MTUgMTUxLjc1N0M2MC4zNiAxNTQuNzc2IDY1LjQyODEgMTU5LjkyOSA3MC4xNjMxIDE2NC43NDNDNzQuOTY3MSAxNjkuNjI3IDc5LjQyOCAxNzQuMTYzIDc4LjQ3NCAxNzUuNzY4Qzc2LjU4MSAxNzguOTU1IDY5LjkxNDEgMTcyLjAyMyA2OS45MTQxIDE3Mi4wMjNDNjkuOTE0MSAxNzIuMDIzIDQ5LjAzOCAxNTMuMDI1IDQ0LjQ5NCAxNTcuOTc2QzQwLjMwNCAxNjIuNTM5IDQ2Ljc2NSAxNjYuNDE4IDU2LjcyMTEgMTcyLjM5N0M1Ny41NjcxIDE3Mi45MDUgNTguNDM5MSAxNzMuNDI5IDU5LjMzMjEgMTczLjk2OUM3MC43MjMxIDE4MC44NjUgNzEuNjA5IDE4Mi42ODQgNjkuOTkyIDE4NS4yOTNDNjkuMzk1IDE4Ni4yNTcgNjUuNTgyIDE4My45NjggNjAuODkyIDE4MS4xNTNDNTIuODk3IDE3Ni4zNTIgNDIuMzU1MSAxNzAuMDIzIDQwLjg2NjEgMTc1LjY4OEMzOS41NzgxIDE4MC41OTEgNDcuMzM0IDE4My41OTUgNTQuMzY4IDE4Ni4zMkM2MC4yMjggMTg4LjU5IDY1LjU4ODEgMTkwLjY2NiA2NC43OTkxIDE5My40ODRDNjMuOTgyMSAxOTYuNDA2IDU5LjU1MzEgMTkzLjk2OSA1NC43MTIxIDE5MS4zMDVDNDkuMjc3MSAxODguMzE0IDQzLjMyMjEgMTg1LjAzOCA0MS4zNzMxIDE4OC43MzVDMzcuNjkwMSAxOTUuNzI1IDY2Ljc4MzEgMjAzLjk1NCA2Ny4wMjMxIDIwNC4wMTVDNzYuNDIzMSAyMDYuNDUzIDEwMC4yOTUgMjExLjYxOSAxMDguNjM4IDE5OS4zOTFaTTE0Ny4zMDMgMTk5LjM5MUMxNDEuMzAxIDE5MC41OSAxNDEuNzI3IDE4My45ODQgMTQ5Ljk2MiAxNzUuNzU0QzE1OC4xOTcgMTY3LjUyMyAxNjIuOTkgMTU1LjQ4NyAxNjIuOTkgMTU1LjQ4N0MxNjIuOTkgMTU1LjQ4NyAxNjQuNzc5IDE0OC40OTYgMTY4Ljg1OSAxNDkuMTM4QzE3Mi45MzkgMTQ5Ljc4IDE3NS45MzIgMTYwLjIyNyAxNjcuMzkgMTY2LjYyMkMxNTguODQ3IDE3My4wMTcgMTY5LjA4OSAxNzcuMzUzIDE3Mi4zNzcgMTcxLjM1MkMxNzUuNjY2IDE2NS4zNSAxODQuNjM3IDE0OS45MjMgMTg5LjI5MSAxNDYuOTcyQzE5My45NDUgMTQ0LjAyMSAxOTcuMjIgMTQ1LjY3NSAxOTYuMTIyIDE1MS43NTdDMTk1LjU3OCAxNTQuNzc2IDE5MC41MDkgMTU5LjkyOSAxODUuNzc0IDE2NC43NDRDMTgwLjk3IDE2OS42MjggMTc2LjUwOSAxNzQuMTYzIDE3Ny40NjIgMTc1Ljc2OEMxNzkuMzU1IDE3OC45NTUgMTg2LjAyNyAxNzIuMDE5IDE4Ni4wMjcgMTcyLjAxOUMxODYuMDI3IDE3Mi4wMTkgMjA2LjkwMiAxNTMuMDIyIDIxMS40NDggMTU3Ljk3M0MyMTUuNjM3IDE2Mi41MzUgMjA5LjE3NiAxNjYuNDE1IDE5OS4yMTkgMTcyLjM5NEMxOTguMzQ4IDE3Mi45MTcgMTk3LjQ3OCAxNzMuNDQxIDE5Ni42MDkgMTczLjk2NkMxODUuMjE4IDE4MC44NjIgMTg0LjMzMiAxODIuNjgxIDE4NS45NDggMTg1LjI4OUMxODYuNTQ2IDE4Ni4yNTQgMTkwLjM1OSAxODMuOTY0IDE5NS4wNDggMTgxLjE0OUMyMDMuMDQ0IDE3Ni4zNDkgMjEzLjU4NiAxNzAuMDE5IDIxNS4wNzUgMTc1LjY4NUMyMTYuMzY0IDE4MC41ODggMjA4LjYwNyAxODMuNTkyIDIwMS41NzMgMTg2LjMxN0MxOTUuNzEzIDE4OC41ODcgMTkwLjM1MyAxOTAuNjYzIDE5MS4xNDEgMTkzLjQ4MUMxOTEuOTU3IDE5Ni40MDIgMTk2LjM4NSAxOTMuOTY1IDIwMS4yMjUgMTkxLjMwMUMyMDYuNjYgMTg4LjMxIDIxMi42MTYgMTg1LjAzMiAyMTQuNTY0IDE4OC43MzJDMjE4LjI0OCAxOTUuNzI2IDE4OS4xNSAyMDMuOTQ3IDE4OC45MTUgMjA0LjAwN0MxNzkuNTE1IDIwNi40NTMgMTU1LjY0MyAyMTEuNjE5IDE0Ny4zMDMgMTk5LjM5MVoiIGNsaXAtcnVsZT0iZXZlbm9kZCIgZmlsbC1ydWxlPSJldmVub2RkIi8+JiN4YTs8cGF0aCBmaWxsPSIjMzIzNDNEIiBkPSJNMTUyLjA0NyAxMDIuNTY3QzE1My4yMjkgMTAyLjk4NSAxNTQuMTA4IDEwNC4yNTcgMTU0Ljk0NCAxMDUuNDY4QzE1Ni4wNzQgMTA3LjEwNCAxNTcuMTI2IDEwOC42MjcgMTU4Ljc0IDEwNy43NjlDMTYwLjY0NCAxMDYuNzU2IDE2Mi4yMDUgMTA1LjIwMiAxNjMuMjI1IDEwMy4zMDJDMTY0LjI0NiAxMDEuNDAyIDE2NC42ODEgOTkuMjQyNyAxNjQuNDc1IDk3LjA5NkMxNjQuMzIxIDk1LjQ5MDggMTYzLjgxMyA5My45Mzk4IDE2Mi45ODcgOTIuNTU0OEMxNjIuMTYxIDkxLjE2OTcgMTYxLjAzOCA4OS45ODUgMTU5LjcgODkuMDg2MkMxNTguMzYxIDg4LjE4NzQgMTU2LjgzOSA4Ny41OTY4IDE1NS4yNDUgODcuMzU2OUMxNTMuNjUgODcuMTE3IDE1Mi4wMjIgODcuMjMzOSAxNTAuNDc4IDg3LjY5OUMxNDguOTM0IDg4LjE2MzkgMTQ3LjUxMyA4OC45NjUzIDE0Ni4zMTYgOTAuMDQ1NUMxNDUuMTE5IDkxLjEyNTcgMTQ0LjE3NiA5Mi40NTc4IDE0My41NTYgOTMuOTQ2QzE0Mi45MzYgOTUuNDM0MiAxNDIuNjUzIDk3LjA0MTUgMTQyLjcyOCA5OC42NTJDMTQyLjgwNCAxMDAuMjYzIDE0My4yMzUgMTAxLjgzNiAxNDMuOTkyIDEwMy4yNkMxNDQuNzQgMTA0LjY2NyAxNDYuNCAxMDQuMDAzIDE0OC4xNTIgMTAzLjMwMkMxNDkuNTI1IDEwMi43NTMgMTUwLjk1NiAxMDIuMTgxIDE1Mi4wNDcgMTAyLjU2N1pNMTAwLjY3MiAxMDIuNTY3Qzk5LjQ5IDEwMi45ODUgOTguNjExIDEwNC4yNTggOTcuNzc1IDEwNS40NjhDOTYuNjQ1IDEwNy4xMDUgOTUuNTkyIDEwOC42MjcgOTMuOTc5IDEwNy43NjlDOTEuNTg0NSAxMDYuNTAxIDg5Ljc0ODIgMTA0LjM4NiA4OC44Mjc4IDEwMS44MzhDODcuOTA3NSA5OS4yODk1IDg3Ljk2OTIgOTYuNDg5NiA4OS4wMDA4IDkzLjk4NDFDOTAuMDMyNCA5MS40Nzg2IDkxLjk2MDEgODkuNDQ3MSA5NC40MDggODguMjg1NUM5Ni44NTYgODcuMTIzOSA5OS42NDg4IDg2LjkxNTYgMTAyLjI0MiA4Ny43MDFDMTA0LjMwNyA4OC4zMjI4IDEwNi4xNDEgODkuNTQyNyAxMDcuNTEzIDkxLjIwNjVDMTA4Ljg4NSA5Mi44NzA0IDEwOS43MzIgOTQuOTAzNSAxMDkuOTQ5IDk3LjA0OUMxMTAuMTY1IDk5LjE5NDUgMTA5Ljc0IDEwMS4zNTYgMTA4LjcyOCAxMDMuMjZDMTA3Ljk3OSAxMDQuNjY3IDEwNi4zMTkgMTA0LjAwMyAxMDQuNTY3IDEwMy4zMDNDMTAzLjE5MyAxMDIuNzUzIDEwMS43NjQgMTAyLjE4MSAxMDAuNjcyIDEwMi41NjdaTTE0NC4wOTkgMTQ5LjMxOEMxNTIuMjQyIDE0Mi45MDMgMTU1LjIzMyAxMzIuNDI5IDE1NS4yMzMgMTI1Ljk3N0MxNTUuMjMzIDEyMC44NzcgMTUxLjgwMiAxMjIuNDgyIDE0Ni4zMDkgMTI1LjIwMkwxNDUuOTk5IDEyNS4zNTVDMTQwLjk1NyAxMjcuODUyIDEzNC4yNDUgMTMxLjE3NyAxMjYuODc3IDEzMS4xNzdDMTE5LjUwOCAxMzEuMTc3IDExMi43OTYgMTI3Ljg1MiAxMDcuNzU1IDEyNS4zNTRDMTAyLjA4NCAxMjIuNTQ1IDk4LjUyNyAxMjAuNzgzIDk4LjUyNyAxMjUuOTc4Qzk4LjUyNyAxMzIuNjM0IDEwMS43MDkgMTQzLjU2MyAxMTAuNDQzIDE0OS45MTJDMTExLjU5NiAxNDcuNTczIDExMy4yMTkgMTQ1LjQ5NyAxMTUuMjExIDE0My44MTNDMTE3LjIwMiAxNDIuMTI5IDExOS41MiAxNDAuODc0IDEyMi4wMTggMTQwLjEyNkMxMjIuODkgMTM5Ljg2NiAxMjMuNzg4IDE0MS4zNjcgMTI0LjcwNyAxNDIuOTA0QzEyNS41OTQgMTQ0LjM4NiAxMjYuNTAxIDE0NS45MDIgMTI3LjQyMyAxNDUuOTAyQzEyOC40MDYgMTQ1LjkwMiAxMjkuMzcxIDE0NC40MDggMTMwLjMxNCAxNDIuOTVDMTMxLjI5OSAxNDEuNDI1IDEzMi4yNiAxMzkuOTQgMTMzLjE4OSAxNDAuMjM3QzEzNy44NjQgMTQxLjczOCAxNDEuNzc1IDE0NC45OTMgMTQ0LjA5OSAxNDkuMzE4WiIgY2xpcC1ydWxlPSJldmVub2RkIiBmaWxsLXJ1bGU9ImV2ZW5vZGQiLz4mI3hhOzxwYXRoIGZpbGw9IiNGRjMyM0QiIGQ9Ik0xNDQuMDk3IDE0OS4zMTdDMTM5Ljg1NiAxNTIuNjU5IDEzNC4yMTkgMTU0LjkgMTI2Ljg3OCAxNTQuOUMxMTkuOTgxIDE1NC45IDExNC41ODcgMTUyLjkyMiAxMTAuNDQzIDE0OS45MTFDMTExLjU5NiAxNDcuNTcyIDExMy4yMTkgMTQ1LjQ5NSAxMTUuMjExIDE0My44MTJDMTE3LjIwMiAxNDIuMTI4IDExOS41MiAxNDAuODczIDEyMi4wMTggMTQwLjEyNUMxMjMuNzMgMTM5LjYxNCAxMjUuNTQ1IDE0NS45MDEgMTI3LjQyMyAxNDUuOTAxQzEyOS40MzMgMTQ1LjkwMSAxMzEuMzcgMTM5LjY1NSAxMzMuMTg5IDE0MC4yMzZDMTM3Ljg2MyAxNDEuNzM4IDE0MS43NzMgMTQ0Ljk5MyAxNDQuMDk3IDE0OS4zMTdaIi8+JiN4YTs8cGF0aCBmaWxsPSIjRkZBRDAzIiBkPSJNODEuMiAxMTEuNjRDODAuMjMxMiAxMTIuMjg4IDc5LjExNzMgMTEyLjY4NyA3Ny45NTcyIDExMi44MDFDNzYuNzk3MSAxMTIuOTE2IDc1LjYyNjcgMTEyLjc0MiA3NC41NSAxMTIuMjk1QzczLjY4OTMgMTExLjk0IDcyLjkwNzIgMTExLjQxOCA3Mi4yNDg4IDExMC43NTlDNzEuNTkwMyAxMTAuMTAxIDcxLjA2ODQgMTA5LjMxOSA3MC43MTMgMTA4LjQ1OEM3MC4yNjcgMTA3LjM4MSA3MC4wOTM1IDEwNi4yMTEgNzAuMjA4MiAxMDUuMDUxQzcwLjMyMjggMTAzLjg5MSA3MC43MjE5IDEwMi43NzcgNzEuMzcgMTAxLjgwOEM3Mi4xNDg4IDEwMC42NDIgNzMuMjU1OCA5OS43MzMzIDc0LjU1MTIgOTkuMTk2N0M3NS44NDY2IDk4LjY2MDEgNzcuMjcyIDk4LjUxOTcgNzguNjQ3MSA5OC43OTM1QzgwLjAyMjMgOTkuMDY3MiA4MS4yODUzIDk5Ljc0MjcgODIuMjc2NCAxMDAuNzM0QzgzLjI2NzUgMTAxLjcyNiA4My45NDIyIDEwMi45OSA4NC4yMTUgMTA0LjM2NUM4NC40ODgzIDEwNS43NCA4NC4zNDc3IDEwNy4xNjUgODMuODExMyAxMDguNDZDODMuMjc0OCAxMDkuNzU1IDgyLjM2NTQgMTEwLjg2MSA4MS4yIDExMS42NFpNMTgyLjYxMyAxMTEuNjRDMTgxLjY0NCAxMTIuMjg4IDE4MC41MyAxMTIuNjg3IDE3OS4zNyAxMTIuODAxQzE3OC4yMDkgMTEyLjkxNiAxNzcuMDM5IDExMi43NDIgMTc1Ljk2MiAxMTIuMjk1QzE3NS4xMDEgMTExLjkzOSAxNzQuMzE5IDExMS40MTggMTczLjY2MSAxMTAuNzU5QzE3My4wMDMgMTEwLjEwMSAxNzIuNDgxIDEwOS4zMTkgMTcyLjEyNSAxMDguNDU4QzE3MS42OCAxMDcuMzgxIDE3MS41MDcgMTA2LjIxMSAxNzEuNjIxIDEwNS4wNTFDMTcxLjczNiAxMDMuODkxIDE3Mi4xMzUgMTAyLjc3NyAxNzIuNzgyIDEwMS44MDhDMTczLjM2NCAxMDAuOTM2IDE3NC4xMzMgMTAwLjIwNSAxNzUuMDMyIDk5LjY2NThDMTc1LjkzMSA5OS4xMjY5IDE3Ni45MzggOTguNzk0MiAxNzcuOTgxIDk4LjY5MTdDMTc5LjAyNSA5OC41ODkxIDE4MC4wNzggOTguNzE5MyAxODEuMDY0IDk5LjA3MjhDMTgyLjA1MSA5OS40MjY0IDE4Mi45NDcgOTkuOTk0NCAxODMuNjg4IDEwMC43MzZDMTg0LjY4IDEwMS43MjcgMTg1LjM1NSAxMDIuOTkgMTg1LjYyOCAxMDQuMzY1QzE4NS45MDIgMTA1Ljc0IDE4NS43NjEgMTA3LjE2NSAxODUuMjI0IDEwOC40NkMxODQuNjg3IDEwOS43NTUgMTgzLjc3OSAxMTAuODYxIDE4Mi42MTMgMTExLjY0WiIgY2xpcC1ydWxlPSJldmVub2RkIiBmaWxsLXJ1bGU9ImV2ZW5vZGQiLz4mI3hhOzwvc3ZnPg==;fontFamily=Courier New;labelBackgroundColor=none;fontStyle=1" vertex="1" parent="1">
          <mxGeometry x="199.5" y="85.83000000000004" width="80" height="74.17" as="geometry" />
        </mxCell>
        <mxCell id="2q6dvKmaqyQex-brDvFA-55" value="" style="shape=image;verticalLabelPosition=bottom;verticalAlign=top;imageAspect=0;aspect=fixed;image=data:image/svg+xml,PHN2ZyB4bWxucz0iaHR0cDovL3d3dy53My5vcmcvMjAwMC9zdmciIHZpZXdCb3g9IjIgNi43MzYwMDAwNjEwMzUxNTYgMjggMTguNTI3OTk5ODc3OTI5Njg4IiBoZWlnaHQ9IjQ2My4xOTk5OTY5NDgyNDIyIiB3aWR0aD0iNzAwIj48dGl0bGU+ZmlsZV90eXBlX2N1ZGE8L3RpdGxlPjxwYXRoIHN0eWxlPSJmaWxsOiM4MGJjMDAiIGQ9Ik0xMi40NDcsMTIuMjY1VjEwLjU5MWMuMTYzLS4wMTIuMzI3LS4wMi40OTQtLjAyNiw0LjU3Ny0uMTQzLDcuNTgxLDMuOTM0LDcuNTgxLDMuOTM0UzE3LjI3OCwxOSwxMy44LDE5YTQuMiw0LjIsMCwwLDEtMS4zNTMtLjIxN1YxMy43MTJjMS43ODIuMjE1LDIuMTQsMSwzLjIxMiwyLjc4OGwyLjM4My0yLjAwOUE2LjMxMiw2LjMxMiwwLDAsMCwxMy4zNywxMi4yMWE4LjYwNiw4LjYwNiwwLDAsMC0uOTIzLjA1NW0wLTUuNTI5djIuNWMuMTY0LS4wMTMuMzI5LS4wMjQuNDk0LS4wMyw2LjM2Ni0uMjE0LDEwLjUxMyw1LjIyMSwxMC41MTMsNS4yMjFzLTQuNzY0LDUuNzkyLTkuNzI2LDUuNzkyYTcuNCw3LjQsMCwwLDEtMS4yODEtLjExMnYxLjU0NWE4LjUyOCw4LjUyOCwwLDAsMCwxLjA2Ny4wNjljNC42MTgsMCw3Ljk1OC0yLjM1OCwxMS4xOTItNS4xNS41MzUuNDMsMi43MzEsMS40NzQsMy4xODIsMS45MzItMy4wNzUsMi41NzQtMTAuMjQxLDQuNjQ5LTE0LjMsNC42NDktLjM5MiwwLS43NjktLjAyNC0xLjEzOC0uMDZ2Mi4xNzJIMzBWNi43MzZabTAsMTIuMDUxdjEuMzJjLTQuMjcxLS43NjItNS40NTctNS4yLTUuNDU3LTUuMmE5LjIzNCw5LjIzNCwwLDAsMSw1LjQ1Ny0yLjY0djEuNDQ3aC0uMDA2YTQuMSw0LjEsMCwwLDAtMy4xODQsMS40NTZzLjc4MiwyLjgxMSwzLjE5LDMuNjJNNC44NjEsMTQuNzEzYTEwLjU3NiwxMC41NzYsMCwwLDEsNy41ODYtNC4xMjJWOS4yMzZDNi44NDgsOS42ODUsMiwxNC40MjcsMiwxNC40MjdzMi43NDYsNy45MzksMTAuNDQ3LDguNjY1di0xLjQ0QzYuOCwyMC45NDEsNC44NjEsMTQuNzEzLDQuODYxLDE0LjcxM1oiLz48L3N2Zz4=;fontFamily=Courier New;labelBackgroundColor=none;fontStyle=1" vertex="1" parent="1">
          <mxGeometry x="520.5" y="97.46000000000004" width="80" height="52.91" as="geometry" />
        </mxCell>
        <mxCell id="2q6dvKmaqyQex-brDvFA-71" style="edgeStyle=orthogonalEdgeStyle;rounded=0;orthogonalLoop=1;jettySize=auto;html=1;entryX=1;entryY=0.5;entryDx=0;entryDy=0;exitX=0;exitY=0.75;exitDx=0;exitDy=0;curved=1;fontFamily=Courier New;labelBackgroundColor=none;fontColor=default;fontStyle=1" edge="1" parent="1" source="2q6dvKmaqyQex-brDvFA-62" target="2q6dvKmaqyQex-brDvFA-23">
          <mxGeometry relative="1" as="geometry" />
        </mxCell>
        <mxCell id="2q6dvKmaqyQex-brDvFA-62" value="" style="rounded=1;whiteSpace=wrap;html=1;fontFamily=Courier New;labelBackgroundColor=none;fillColor=light-dark(#FFFFFF,#00331A);fontStyle=1" vertex="1" parent="1">
          <mxGeometry x="690" y="150.37" width="120" height="150" as="geometry" />
        </mxCell>
        <mxCell id="2q6dvKmaqyQex-brDvFA-56" value="" style="shape=image;verticalLabelPosition=bottom;verticalAlign=top;imageAspect=0;aspect=fixed;image=data:image/svg+xml,PHN2ZyB4bWxuczp4bGluaz0iaHR0cDovL3d3dy53My5vcmcvMTk5OS94bGluayIgeG1sbnM9Imh0dHA6Ly93d3cudzMub3JnLzIwMDAvc3ZnIiB2ZXJzaW9uPSIxLjEiIHZpZXdCb3g9Ii0wLjUgLTAuNSA4MSA4MSIgaGVpZ2h0PSI4MSIgd2lkdGg9IjgxIj4mI3hhOyAgICA8dGl0bGU+SWNvbi1BcmNoaXRlY3R1cmUvNjQvQXJjaF9BbWF6b24tU2ltcGxlLVN0b3JhZ2UtU2VydmljZV82NDwvdGl0bGU+JiN4YTsgICAgPGRlZnM+JiN4YTsgICAgICAgIDxsaW5lYXJHcmFkaWVudCBpZD0ibGluZWFyR3JhZGllbnQtMSIgeTI9IjAlIiB4Mj0iMTAwJSIgeTE9IjEwMCUiIHgxPSIwJSI+JiN4YTsgICAgICAgICAgICA8c3RvcCBvZmZzZXQ9IjAlIiBzdG9wLWNvbG9yPSIjMUI2NjBGIi8+JiN4YTsgICAgICAgICAgICA8c3RvcCBvZmZzZXQ9IjEwMCUiIHN0b3AtY29sb3I9IiM2Q0FFM0UiLz4mI3hhOyAgICAgICAgPC9saW5lYXJHcmFkaWVudD4mI3hhOyAgICA8L2RlZnM+JiN4YTsgICAgPGcgZmlsbC1ydWxlPSJldmVub2RkIiBmaWxsPSJub25lIiBzdHJva2Utd2lkdGg9IjEiIHN0cm9rZT0ibm9uZSIgaWQ9Ikljb24tQXJjaGl0ZWN0dXJlLzY0L0FyY2hfQW1hem9uLVNpbXBsZS1TdG9yYWdlLVNlcnZpY2VfNjQiPiYjeGE7ICAgICAgICA8ZyBmaWxsPSJ1cmwoI2xpbmVhckdyYWRpZW50LTEpIiBpZD0iUmVjdGFuZ2xlIj4mI3hhOyAgICAgICAgICAgIDxyZWN0IGhlaWdodD0iODAiIHdpZHRoPSI4MCIgeT0iMCIgeD0iMCIvPiYjeGE7ICAgICAgICA8L2c+JiN4YTsgICAgICAgIDxnIGZpbGw9IiNGRkZGRkYiIHRyYW5zZm9ybT0idHJhbnNsYXRlKDguMDAwMDAwLCA4LjAwMDAwMCkiIGlkPSJJY29uLVNlcnZpY2UvNjQvQW1hem9uLVNpbXBsZS1TdG9yYWdlLVNlcnZpY2VfNjQiPiYjeGE7ICAgICAgICAgICAgPHBhdGggaWQ9IkFtYXpvbi1TaW1wbGUtU3RvcmFnZS1TZXJ2aWNlLUljb25fNjRfU3F1aWQiIGQ9Ik01Mi44MzU5LDM0Ljg5MjYgTDUzLjIxOTksMzIuMTg4NiBDNTYuNzYwOSwzNC4zMDk2IDU2LjgwNjksMzUuMTg1NiA1Ni44MDU5MTMyLDM1LjIwOTYgQzU2Ljc5OTksMzUuMjE0NiA1Ni4xOTU5LDM1LjcxODYgNTIuODM1OSwzNC44OTI2IEw1Mi44MzU5LDM0Ljg5MjYgWiBNNTAuODkyOSwzNC4zNTI2IEM0NC43NzI5LDMyLjUwMDYgMzYuMjQ5OSwyOC41OTA2IDMyLjgwMDksMjYuOTYwNiBDMzIuODAwOSwyNi45NDY2IDMyLjgwNDksMjYuOTMzNiAzMi44MDQ5LDI2LjkxOTYgQzMyLjgwNDksMjUuNTk0NiAzMS43MjY5LDI0LjUxNjYgMzAuNDAwOSwyNC41MTY2IEMyOS4wNzY5LDI0LjUxNjYgMjcuOTk4OSwyNS41OTQ2IDI3Ljk5ODksMjYuOTE5NiBDMjcuOTk4OSwyOC4yNDQ2IDI5LjA3NjksMjkuMzIyNiAzMC40MDA5LDI5LjMyMjYgQzMwLjk4MjksMjkuMzIyNiAzMS41MTA5LDI5LjEwNTYgMzEuOTI3OSwyOC43NjA2IEMzNS45ODU5LDMwLjY4MTYgNDQuNDQyOSwzNC41MzQ2IDUwLjYwNzksMzYuMzU0NiBMNDguMTY5OSw1My41NjA2IEM0OC4xNjI5LDUzLjYwNzYgNDguMTU5OSw1My42NTQ2IDQ4LjE1OTksNTMuNzAxNiBDNDguMTU5OSw1NS4yMTY2IDQxLjQ1MjksNTcuOTk5NiAzMC40OTM5LDU3Ljk5OTYgQzE5LjQxODksNTcuOTk5NiAxMi42NDA5LDU1LjIxNjYgMTIuNjQwOSw1My43MDE2IEMxMi42NDA5LDUzLjY1NTYgMTIuNjM3OSw1My42MTA2IDEyLjYzMTksNTMuNTY1NiBMNy41Mzc5LDE2LjM1ODYgQzExLjk0NjksMTkuMzkzNiAyMS40Mjk5LDIwLjk5OTYgMzAuNDk5OSwyMC45OTk2IEMzOS41NTU5LDIwLjk5OTYgNDkuMDIyOSwxOS4zOTk2IDUzLjQ0MDksMTYuMzczNiBMNTAuODkyOSwzNC4zNTI2IFogTTYuOTk5OSwxMi40Nzc2IEM3LjA3MTksMTEuMTYxNiAxNC42MzM5LDUuOTk5NiAzMC40OTk5LDUuOTk5NiBDNDYuMzYzOSw1Ljk5OTYgNTMuOTI2OSwxMS4xNjA2IDUzLjk5OTksMTIuNDc3NiBMNTMuOTk5OSwxMi45MjY2IEM1My4xMjk5LDE1Ljg3NzYgNDMuMzI5OSwxOC45OTk2IDMwLjQ5OTksMTguOTk5NiBDMTcuNjQ3OSwxOC45OTk2IDcuODQyOSwxNS44Njc2IDYuOTk5OSwxMi45MTI2IEw2Ljk5OTksMTIuNDc3NiBaIE01NS45OTk5LDEyLjQ5OTYgQzU1Ljk5OTksOS4wMzQ2IDQ2LjA2NTksMy45OTk2IDMwLjQ5OTksMy45OTk2IEMxNC45MzM5LDMuOTk5NiA0Ljk5OTksOS4wMzQ2IDQuOTk5OSwxMi40OTk2IEw1LjA5MzksMTMuMjUzNiBMMTAuNjQxOSw1My43Nzc2IEMxMC43NzQ5LDU4LjMwOTYgMjIuODYwOSw1OS45OTk2IDMwLjQ5MzksNTkuOTk5NiBDMzkuOTY1OSw1OS45OTk2IDUwLjAyODksNTcuODIxNiA1MC4xNTg5LDUzLjc4MDYgTDUyLjU1NDksMzYuODgzNiBDNTMuODg3OSwzNy4yMDI2IDU0Ljk4NDksMzcuMzY1NiA1NS44NjU5LDM3LjM2NTYgQzU3LjA0ODksMzcuMzY1NiA1Ny44NDg5LDM3LjA3NjYgNTguMzMzOSwzNi40OTg2IEM1OC43MzE5LDM2LjAyNDYgNTguODgzOSwzNS40NTA2IDU4Ljc2OTksMzQuODM5NiBDNTguNTEwOSwzMy40NTU2IDU2Ljg2NzksMzEuOTYzNiA1My41MjE5LDMwLjA1NDYgTDU1Ljg5NzksMTMuMjkyNiBMNTUuOTk5OSwxMi40OTk2IFoiLz4mI3hhOyAgICAgICAgPC9nPiYjeGE7ICAgIDwvZz4mI3hhOzwvc3ZnPg==;fontFamily=Courier New;labelBackgroundColor=none;fontStyle=1" vertex="1" parent="1">
          <mxGeometry x="710" y="170.37" width="81" height="81" as="geometry" />
        </mxCell>
        <mxCell id="2q6dvKmaqyQex-brDvFA-58" value="&lt;div&gt;S3&lt;/div&gt;" style="text;html=1;fontSize=15;fontStyle=1;verticalAlign=middle;align=center;rounded=1;fontFamily=Courier New;labelBackgroundColor=none;" vertex="1" parent="1">
          <mxGeometry x="700.5" y="251.37" width="100" height="40" as="geometry" />
        </mxCell>
        <mxCell id="2q6dvKmaqyQex-brDvFA-63" value="&lt;div&gt;Storage&lt;/div&gt;" style="text;strokeColor=none;fillColor=none;html=1;fontSize=24;fontStyle=1;verticalAlign=middle;align=center;fontFamily=Courier New;labelBackgroundColor=none;" vertex="1" parent="1">
          <mxGeometry x="700.5" y="110.37" width="100" height="40" as="geometry" />
        </mxCell>
      </root>
    </mxGraphModel>
  </diagram>
</mxfile>
